<?xml version="1.0" encoding="utf-8" standalone="no"?>
<!DOCTYPE svg PUBLIC "-//W3C//DTD SVG 1.1//EN"
  "http://www.w3.org/Graphics/SVG/1.1/DTD/svg11.dtd">
<svg xmlns:xlink="http://www.w3.org/1999/xlink" width="460.8pt" height="345.6pt" viewBox="0 0 460.8 345.6" xmlns="http://www.w3.org/2000/svg" version="1.1">
 <metadata>
  <rdf:RDF xmlns:dc="http://purl.org/dc/elements/1.1/" xmlns:cc="http://creativecommons.org/ns#" xmlns:rdf="http://www.w3.org/1999/02/22-rdf-syntax-ns#">
   <cc:Work>
    <dc:type rdf:resource="http://purl.org/dc/dcmitype/StillImage"/>
    <dc:date>2025-02-14T21:49:20.551667</dc:date>
    <dc:format>image/svg+xml</dc:format>
    <dc:creator>
     <cc:Agent>
      <dc:title>Matplotlib v3.10.0, https://matplotlib.org/</dc:title>
     </cc:Agent>
    </dc:creator>
   </cc:Work>
  </rdf:RDF>
 </metadata>
 <defs>
  <style type="text/css">*{stroke-linejoin: round; stroke-linecap: butt}</style>
 </defs>
 <g id="figure_1">
  <g id="patch_1">
   <path d="M 0 345.6 
L 460.8 345.6 
L 460.8 0 
L 0 0 
z
" style="fill: #ffffff"/>
  </g>
  <g id="axes_1">
   <g id="patch_2">
    <path d="M 57.6 307.584 
L 414.72 307.584 
L 414.72 41.472 
L 57.6 41.472 
z
" style="fill: #ffffff"/>
   </g>
   <g id="matplotlib.axis_1">
    <g id="xtick_1">
     <g id="line2d_1">
      <defs>
       <path id="m517f248a17" d="M 0 0 
L 0 3.5 
" style="stroke: #000000; stroke-width: 0.8"/>
      </defs>
      <g>
       <use xlink:href="#m517f248a17" x="73.832727" y="307.584" style="stroke: #000000; stroke-width: 0.8"/>
      </g>
     </g>
     <g id="text_1">
      <!-- 0 -->
      <g transform="translate(70.651477 322.182437) scale(0.1 -0.1)">
       <defs>
        <path id="DejaVuSans-30" d="M 2034 4250 
Q 1547 4250 1301 3770 
Q 1056 3291 1056 2328 
Q 1056 1369 1301 889 
Q 1547 409 2034 409 
Q 2525 409 2770 889 
Q 3016 1369 3016 2328 
Q 3016 3291 2770 3770 
Q 2525 4250 2034 4250 
z
M 2034 4750 
Q 2819 4750 3233 4129 
Q 3647 3509 3647 2328 
Q 3647 1150 3233 529 
Q 2819 -91 2034 -91 
Q 1250 -91 836 529 
Q 422 1150 422 2328 
Q 422 3509 836 4129 
Q 1250 4750 2034 4750 
z
" transform="scale(0.015625)"/>
       </defs>
       <use xlink:href="#DejaVuSans-30"/>
      </g>
     </g>
    </g>
    <g id="xtick_2">
     <g id="line2d_2">
      <g>
       <use xlink:href="#m517f248a17" x="139.419504" y="307.584" style="stroke: #000000; stroke-width: 0.8"/>
      </g>
     </g>
     <g id="text_2">
      <!-- 20 -->
      <g transform="translate(133.057004 322.182437) scale(0.1 -0.1)">
       <defs>
        <path id="DejaVuSans-32" d="M 1228 531 
L 3431 531 
L 3431 0 
L 469 0 
L 469 531 
Q 828 903 1448 1529 
Q 2069 2156 2228 2338 
Q 2531 2678 2651 2914 
Q 2772 3150 2772 3378 
Q 2772 3750 2511 3984 
Q 2250 4219 1831 4219 
Q 1534 4219 1204 4116 
Q 875 4013 500 3803 
L 500 4441 
Q 881 4594 1212 4672 
Q 1544 4750 1819 4750 
Q 2544 4750 2975 4387 
Q 3406 4025 3406 3419 
Q 3406 3131 3298 2873 
Q 3191 2616 2906 2266 
Q 2828 2175 2409 1742 
Q 1991 1309 1228 531 
z
" transform="scale(0.015625)"/>
       </defs>
       <use xlink:href="#DejaVuSans-32"/>
       <use xlink:href="#DejaVuSans-30" transform="translate(63.623047 0)"/>
      </g>
     </g>
    </g>
    <g id="xtick_3">
     <g id="line2d_3">
      <g>
       <use xlink:href="#m517f248a17" x="205.006281" y="307.584" style="stroke: #000000; stroke-width: 0.8"/>
      </g>
     </g>
     <g id="text_3">
      <!-- 40 -->
      <g transform="translate(198.643781 322.182437) scale(0.1 -0.1)">
       <defs>
        <path id="DejaVuSans-34" d="M 2419 4116 
L 825 1625 
L 2419 1625 
L 2419 4116 
z
M 2253 4666 
L 3047 4666 
L 3047 1625 
L 3713 1625 
L 3713 1100 
L 3047 1100 
L 3047 0 
L 2419 0 
L 2419 1100 
L 313 1100 
L 313 1709 
L 2253 4666 
z
" transform="scale(0.015625)"/>
       </defs>
       <use xlink:href="#DejaVuSans-34"/>
       <use xlink:href="#DejaVuSans-30" transform="translate(63.623047 0)"/>
      </g>
     </g>
    </g>
    <g id="xtick_4">
     <g id="line2d_4">
      <g>
       <use xlink:href="#m517f248a17" x="270.593058" y="307.584" style="stroke: #000000; stroke-width: 0.8"/>
      </g>
     </g>
     <g id="text_4">
      <!-- 60 -->
      <g transform="translate(264.230558 322.182437) scale(0.1 -0.1)">
       <defs>
        <path id="DejaVuSans-36" d="M 2113 2584 
Q 1688 2584 1439 2293 
Q 1191 2003 1191 1497 
Q 1191 994 1439 701 
Q 1688 409 2113 409 
Q 2538 409 2786 701 
Q 3034 994 3034 1497 
Q 3034 2003 2786 2293 
Q 2538 2584 2113 2584 
z
M 3366 4563 
L 3366 3988 
Q 3128 4100 2886 4159 
Q 2644 4219 2406 4219 
Q 1781 4219 1451 3797 
Q 1122 3375 1075 2522 
Q 1259 2794 1537 2939 
Q 1816 3084 2150 3084 
Q 2853 3084 3261 2657 
Q 3669 2231 3669 1497 
Q 3669 778 3244 343 
Q 2819 -91 2113 -91 
Q 1303 -91 875 529 
Q 447 1150 447 2328 
Q 447 3434 972 4092 
Q 1497 4750 2381 4750 
Q 2619 4750 2861 4703 
Q 3103 4656 3366 4563 
z
" transform="scale(0.015625)"/>
       </defs>
       <use xlink:href="#DejaVuSans-36"/>
       <use xlink:href="#DejaVuSans-30" transform="translate(63.623047 0)"/>
      </g>
     </g>
    </g>
    <g id="xtick_5">
     <g id="line2d_5">
      <g>
       <use xlink:href="#m517f248a17" x="336.179835" y="307.584" style="stroke: #000000; stroke-width: 0.8"/>
      </g>
     </g>
     <g id="text_5">
      <!-- 80 -->
      <g transform="translate(329.817335 322.182437) scale(0.1 -0.1)">
       <defs>
        <path id="DejaVuSans-38" d="M 2034 2216 
Q 1584 2216 1326 1975 
Q 1069 1734 1069 1313 
Q 1069 891 1326 650 
Q 1584 409 2034 409 
Q 2484 409 2743 651 
Q 3003 894 3003 1313 
Q 3003 1734 2745 1975 
Q 2488 2216 2034 2216 
z
M 1403 2484 
Q 997 2584 770 2862 
Q 544 3141 544 3541 
Q 544 4100 942 4425 
Q 1341 4750 2034 4750 
Q 2731 4750 3128 4425 
Q 3525 4100 3525 3541 
Q 3525 3141 3298 2862 
Q 3072 2584 2669 2484 
Q 3125 2378 3379 2068 
Q 3634 1759 3634 1313 
Q 3634 634 3220 271 
Q 2806 -91 2034 -91 
Q 1263 -91 848 271 
Q 434 634 434 1313 
Q 434 1759 690 2068 
Q 947 2378 1403 2484 
z
M 1172 3481 
Q 1172 3119 1398 2916 
Q 1625 2713 2034 2713 
Q 2441 2713 2670 2916 
Q 2900 3119 2900 3481 
Q 2900 3844 2670 4047 
Q 2441 4250 2034 4250 
Q 1625 4250 1398 4047 
Q 1172 3844 1172 3481 
z
" transform="scale(0.015625)"/>
       </defs>
       <use xlink:href="#DejaVuSans-38"/>
       <use xlink:href="#DejaVuSans-30" transform="translate(63.623047 0)"/>
      </g>
     </g>
    </g>
    <g id="xtick_6">
     <g id="line2d_6">
      <g>
       <use xlink:href="#m517f248a17" x="401.766612" y="307.584" style="stroke: #000000; stroke-width: 0.8"/>
      </g>
     </g>
     <g id="text_6">
      <!-- 100 -->
      <g transform="translate(392.222862 322.182437) scale(0.1 -0.1)">
       <defs>
        <path id="DejaVuSans-31" d="M 794 531 
L 1825 531 
L 1825 4091 
L 703 3866 
L 703 4441 
L 1819 4666 
L 2450 4666 
L 2450 531 
L 3481 531 
L 3481 0 
L 794 0 
L 794 531 
z
" transform="scale(0.015625)"/>
       </defs>
       <use xlink:href="#DejaVuSans-31"/>
       <use xlink:href="#DejaVuSans-30" transform="translate(63.623047 0)"/>
       <use xlink:href="#DejaVuSans-30" transform="translate(127.246094 0)"/>
      </g>
     </g>
    </g>
   </g>
   <g id="matplotlib.axis_2">
    <g id="ytick_1">
     <g id="line2d_7">
      <defs>
       <path id="mefc52c67fb" d="M 0 0 
L -3.5 0 
" style="stroke: #000000; stroke-width: 0.8"/>
      </defs>
      <g>
       <use xlink:href="#mefc52c67fb" x="57.6" y="268.367228" style="stroke: #000000; stroke-width: 0.8"/>
      </g>
     </g>
     <g id="text_7">
      <!-- −5 -->
      <g transform="translate(35.857813 272.166447) scale(0.1 -0.1)">
       <defs>
        <path id="DejaVuSans-2212" d="M 678 2272 
L 4684 2272 
L 4684 1741 
L 678 1741 
L 678 2272 
z
" transform="scale(0.015625)"/>
        <path id="DejaVuSans-35" d="M 691 4666 
L 3169 4666 
L 3169 4134 
L 1269 4134 
L 1269 2991 
Q 1406 3038 1543 3061 
Q 1681 3084 1819 3084 
Q 2600 3084 3056 2656 
Q 3513 2228 3513 1497 
Q 3513 744 3044 326 
Q 2575 -91 1722 -91 
Q 1428 -91 1123 -41 
Q 819 9 494 109 
L 494 744 
Q 775 591 1075 516 
Q 1375 441 1709 441 
Q 2250 441 2565 725 
Q 2881 1009 2881 1497 
Q 2881 1984 2565 2268 
Q 2250 2553 1709 2553 
Q 1456 2553 1204 2497 
Q 953 2441 691 2322 
L 691 4666 
z
" transform="scale(0.015625)"/>
       </defs>
       <use xlink:href="#DejaVuSans-2212"/>
       <use xlink:href="#DejaVuSans-35" transform="translate(83.789062 0)"/>
      </g>
     </g>
    </g>
    <g id="ytick_2">
     <g id="line2d_8">
      <g>
       <use xlink:href="#mefc52c67fb" x="57.6" y="227.080508" style="stroke: #000000; stroke-width: 0.8"/>
      </g>
     </g>
     <g id="text_8">
      <!-- −4 -->
      <g transform="translate(35.857813 230.879726) scale(0.1 -0.1)">
       <use xlink:href="#DejaVuSans-2212"/>
       <use xlink:href="#DejaVuSans-34" transform="translate(83.789062 0)"/>
      </g>
     </g>
    </g>
    <g id="ytick_3">
     <g id="line2d_9">
      <g>
       <use xlink:href="#mefc52c67fb" x="57.6" y="185.793787" style="stroke: #000000; stroke-width: 0.8"/>
      </g>
     </g>
     <g id="text_9">
      <!-- −3 -->
      <g transform="translate(35.857813 189.593006) scale(0.1 -0.1)">
       <defs>
        <path id="DejaVuSans-33" d="M 2597 2516 
Q 3050 2419 3304 2112 
Q 3559 1806 3559 1356 
Q 3559 666 3084 287 
Q 2609 -91 1734 -91 
Q 1441 -91 1130 -33 
Q 819 25 488 141 
L 488 750 
Q 750 597 1062 519 
Q 1375 441 1716 441 
Q 2309 441 2620 675 
Q 2931 909 2931 1356 
Q 2931 1769 2642 2001 
Q 2353 2234 1838 2234 
L 1294 2234 
L 1294 2753 
L 1863 2753 
Q 2328 2753 2575 2939 
Q 2822 3125 2822 3475 
Q 2822 3834 2567 4026 
Q 2313 4219 1838 4219 
Q 1578 4219 1281 4162 
Q 984 4106 628 3988 
L 628 4550 
Q 988 4650 1302 4700 
Q 1616 4750 1894 4750 
Q 2613 4750 3031 4423 
Q 3450 4097 3450 3541 
Q 3450 3153 3228 2886 
Q 3006 2619 2597 2516 
z
" transform="scale(0.015625)"/>
       </defs>
       <use xlink:href="#DejaVuSans-2212"/>
       <use xlink:href="#DejaVuSans-33" transform="translate(83.789062 0)"/>
      </g>
     </g>
    </g>
    <g id="ytick_4">
     <g id="line2d_10">
      <g>
       <use xlink:href="#mefc52c67fb" x="57.6" y="144.507067" style="stroke: #000000; stroke-width: 0.8"/>
      </g>
     </g>
     <g id="text_10">
      <!-- −2 -->
      <g transform="translate(35.857813 148.306285) scale(0.1 -0.1)">
       <use xlink:href="#DejaVuSans-2212"/>
       <use xlink:href="#DejaVuSans-32" transform="translate(83.789062 0)"/>
      </g>
     </g>
    </g>
    <g id="ytick_5">
     <g id="line2d_11">
      <g>
       <use xlink:href="#mefc52c67fb" x="57.6" y="103.220346" style="stroke: #000000; stroke-width: 0.8"/>
      </g>
     </g>
     <g id="text_11">
      <!-- −1 -->
      <g transform="translate(35.857813 107.019565) scale(0.1 -0.1)">
       <use xlink:href="#DejaVuSans-2212"/>
       <use xlink:href="#DejaVuSans-31" transform="translate(83.789062 0)"/>
      </g>
     </g>
    </g>
    <g id="ytick_6">
     <g id="line2d_12">
      <g>
       <use xlink:href="#mefc52c67fb" x="57.6" y="61.933625" style="stroke: #000000; stroke-width: 0.8"/>
      </g>
     </g>
     <g id="text_12">
      <!-- 0 -->
      <g transform="translate(44.2375 65.732844) scale(0.1 -0.1)">
       <use xlink:href="#DejaVuSans-30"/>
      </g>
     </g>
    </g>
   </g>
   <g id="line2d_13">
    <path d="M 73.832727 62.106583 
L 77.112066 62.446673 
L 80.391405 62.728393 
L 83.670744 63.098581 
L 86.950083 63.527221 
L 90.229421 63.93057 
L 93.50876 64.875525 
L 96.788099 66.285841 
L 100.067438 67.763037 
L 103.346777 69.021985 
L 106.626116 70.181311 
L 109.905455 71.544938 
L 113.184793 72.939355 
L 116.464132 74.673066 
L 119.743471 76.908148 
L 123.02281 79.637783 
L 126.302149 82.932895 
L 129.581488 86.859194 
L 132.860826 91.245632 
L 136.140165 95.904504 
L 139.419504 101.140015 
L 142.698843 107.25113 
L 145.978182 113.751249 
L 149.257521 120.066033 
L 152.53686 126.235479 
L 155.816198 132.208284 
L 159.095537 137.802569 
L 162.374876 143.598123 
L 165.654215 149.358311 
L 168.933554 154.363786 
L 172.212893 159.196109 
L 175.492231 164.101993 
L 178.77157 168.918181 
L 182.050909 173.454678 
L 185.330248 177.299646 
L 188.609587 180.920507 
L 191.888926 184.422622 
L 195.168264 187.70606 
L 198.447603 190.911779 
L 201.726942 193.975879 
L 205.006281 196.88355 
L 208.28562 199.473223 
L 211.564959 202.019371 
L 214.844298 204.444967 
L 218.123636 206.611779 
L 221.402975 208.48965 
L 224.682314 210.026901 
L 227.961653 211.036427 
L 231.240992 211.647646 
L 234.520331 211.791213 
L 237.799669 211.711348 
L 241.079008 211.833554 
L 244.358347 212.280527 
L 247.637686 213.319063 
L 250.917025 214.793223 
L 254.196364 216.349925 
L 257.475702 217.648523 
L 260.755041 218.940672 
L 264.03438 220.405091 
L 267.313719 221.816288 
L 270.593058 223.205607 
L 273.872397 224.758936 
L 277.151736 226.478505 
L 280.431074 228.282891 
L 283.710413 230.48931 
L 286.989752 232.937562 
L 290.269091 235.12409 
L 293.54843 237.115908 
L 296.827769 239.242227 
L 300.107107 241.517816 
L 303.386446 243.496773 
L 306.665785 244.877043 
L 309.945124 245.970314 
L 313.224463 246.674836 
L 316.503802 247.278561 
L 319.78314 248.476085 
L 323.062479 250.030974 
L 326.341818 251.501357 
L 329.621157 252.810004 
L 332.900496 254.17744 
L 336.179835 255.107896 
L 339.459174 255.67198 
L 342.738512 256.519074 
L 346.017851 257.635226 
L 349.29719 258.960019 
L 352.576529 260.311152 
L 355.855868 261.737601 
L 359.135207 263.797279 
L 362.414545 265.758077 
L 365.693884 267.389169 
L 368.973223 269.27508 
L 372.252562 271.545415 
L 375.531901 273.841443 
L 378.81124 275.648197 
L 382.090579 277.070757 
L 385.369917 278.484579 
L 388.649256 279.873841 
L 391.928595 280.75732 
L 395.207934 281.432032 
L 398.487273 282.138326 
" clip-path="url(#pe9b644ce90)" style="fill: none; stroke: #0000ff; stroke-width: 1.5; stroke-linecap: square"/>
   </g>
   <g id="line2d_14">
    <defs>
     <path id="me831ed72c0" d="M 0 3 
C 0.795609 3 1.55874 2.683901 2.12132 2.12132 
C 2.683901 1.55874 3 0.795609 3 0 
C 3 -0.795609 2.683901 -1.55874 2.12132 -2.12132 
C 1.55874 -2.683901 0.795609 -3 0 -3 
C -0.795609 -3 -1.55874 -2.683901 -2.12132 -2.12132 
C -2.683901 -1.55874 -3 -0.795609 -3 0 
C -3 0.795609 -2.683901 1.55874 -2.12132 2.12132 
C -1.55874 2.683901 -0.795609 3 0 3 
z
" style="stroke: #1f77b4"/>
    </defs>
    <g clip-path="url(#pe9b644ce90)">
     <use xlink:href="#me831ed72c0" x="73.832727" y="63.966965" style="fill: #1f77b4; stroke: #1f77b4"/>
     <use xlink:href="#me831ed72c0" x="77.112066" y="60.403011" style="fill: #1f77b4; stroke: #1f77b4"/>
     <use xlink:href="#me831ed72c0" x="80.391405" y="53.568" style="fill: #1f77b4; stroke: #1f77b4"/>
     <use xlink:href="#me831ed72c0" x="83.670744" y="58.833106" style="fill: #1f77b4; stroke: #1f77b4"/>
     <use xlink:href="#me831ed72c0" x="86.950083" y="74.938477" style="fill: #1f77b4; stroke: #1f77b4"/>
     <use xlink:href="#me831ed72c0" x="90.229421" y="57.661646" style="fill: #1f77b4; stroke: #1f77b4"/>
     <use xlink:href="#me831ed72c0" x="93.50876" y="61.809667" style="fill: #1f77b4; stroke: #1f77b4"/>
     <use xlink:href="#me831ed72c0" x="96.788099" y="67.633052" style="fill: #1f77b4; stroke: #1f77b4"/>
     <use xlink:href="#me831ed72c0" x="100.067438" y="73.163867" style="fill: #1f77b4; stroke: #1f77b4"/>
     <use xlink:href="#me831ed72c0" x="103.346777" y="78.479436" style="fill: #1f77b4; stroke: #1f77b4"/>
     <use xlink:href="#me831ed72c0" x="106.626116" y="61.663253" style="fill: #1f77b4; stroke: #1f77b4"/>
     <use xlink:href="#me831ed72c0" x="109.905455" y="63.390819" style="fill: #1f77b4; stroke: #1f77b4"/>
     <use xlink:href="#me831ed72c0" x="113.184793" y="58.291807" style="fill: #1f77b4; stroke: #1f77b4"/>
     <use xlink:href="#me831ed72c0" x="116.464132" y="86.498947" style="fill: #1f77b4; stroke: #1f77b4"/>
     <use xlink:href="#me831ed72c0" x="119.743471" y="72.658361" style="fill: #1f77b4; stroke: #1f77b4"/>
     <use xlink:href="#me831ed72c0" x="123.02281" y="67.882493" style="fill: #1f77b4; stroke: #1f77b4"/>
     <use xlink:href="#me831ed72c0" x="126.302149" y="91.358768" style="fill: #1f77b4; stroke: #1f77b4"/>
     <use xlink:href="#me831ed72c0" x="129.581488" y="71.811917" style="fill: #1f77b4; stroke: #1f77b4"/>
     <use xlink:href="#me831ed72c0" x="132.860826" y="75.503626" style="fill: #1f77b4; stroke: #1f77b4"/>
     <use xlink:href="#me831ed72c0" x="136.140165" y="98.478653" style="fill: #1f77b4; stroke: #1f77b4"/>
     <use xlink:href="#me831ed72c0" x="139.419504" y="108.580114" style="fill: #1f77b4; stroke: #1f77b4"/>
     <use xlink:href="#me831ed72c0" x="142.698843" y="116.98537" style="fill: #1f77b4; stroke: #1f77b4"/>
     <use xlink:href="#me831ed72c0" x="145.978182" y="101.808136" style="fill: #1f77b4; stroke: #1f77b4"/>
     <use xlink:href="#me831ed72c0" x="149.257521" y="111.161207" style="fill: #1f77b4; stroke: #1f77b4"/>
     <use xlink:href="#me831ed72c0" x="152.53686" y="125.757551" style="fill: #1f77b4; stroke: #1f77b4"/>
     <use xlink:href="#me831ed72c0" x="155.816198" y="131.501003" style="fill: #1f77b4; stroke: #1f77b4"/>
     <use xlink:href="#me831ed72c0" x="159.095537" y="137.043219" style="fill: #1f77b4; stroke: #1f77b4"/>
     <use xlink:href="#me831ed72c0" x="162.374876" y="143.665396" style="fill: #1f77b4; stroke: #1f77b4"/>
     <use xlink:href="#me831ed72c0" x="165.654215" y="158.587133" style="fill: #1f77b4; stroke: #1f77b4"/>
     <use xlink:href="#me831ed72c0" x="168.933554" y="148.299639" style="fill: #1f77b4; stroke: #1f77b4"/>
     <use xlink:href="#me831ed72c0" x="172.212893" y="154.607585" style="fill: #1f77b4; stroke: #1f77b4"/>
     <use xlink:href="#me831ed72c0" x="175.492231" y="182.319681" style="fill: #1f77b4; stroke: #1f77b4"/>
     <use xlink:href="#me831ed72c0" x="178.77157" y="168.806963" style="fill: #1f77b4; stroke: #1f77b4"/>
     <use xlink:href="#me831ed72c0" x="182.050909" y="154.071207" style="fill: #1f77b4; stroke: #1f77b4"/>
     <use xlink:href="#me831ed72c0" x="185.330248" y="189.009409" style="fill: #1f77b4; stroke: #1f77b4"/>
     <use xlink:href="#me831ed72c0" x="188.609587" y="201.484892" style="fill: #1f77b4; stroke: #1f77b4"/>
     <use xlink:href="#me831ed72c0" x="191.888926" y="186.667814" style="fill: #1f77b4; stroke: #1f77b4"/>
     <use xlink:href="#me831ed72c0" x="195.168264" y="181.068052" style="fill: #1f77b4; stroke: #1f77b4"/>
     <use xlink:href="#me831ed72c0" x="198.447603" y="168.435553" style="fill: #1f77b4; stroke: #1f77b4"/>
     <use xlink:href="#me831ed72c0" x="201.726942" y="192.862041" style="fill: #1f77b4; stroke: #1f77b4"/>
     <use xlink:href="#me831ed72c0" x="205.006281" y="204.355894" style="fill: #1f77b4; stroke: #1f77b4"/>
     <use xlink:href="#me831ed72c0" x="208.28562" y="203.504865" style="fill: #1f77b4; stroke: #1f77b4"/>
     <use xlink:href="#me831ed72c0" x="211.564959" y="217.620577" style="fill: #1f77b4; stroke: #1f77b4"/>
     <use xlink:href="#me831ed72c0" x="214.844298" y="198.125112" style="fill: #1f77b4; stroke: #1f77b4"/>
     <use xlink:href="#me831ed72c0" x="218.123636" y="195.060008" style="fill: #1f77b4; stroke: #1f77b4"/>
     <use xlink:href="#me831ed72c0" x="221.402975" y="211.967907" style="fill: #1f77b4; stroke: #1f77b4"/>
     <use xlink:href="#me831ed72c0" x="224.682314" y="200.022479" style="fill: #1f77b4; stroke: #1f77b4"/>
     <use xlink:href="#me831ed72c0" x="227.961653" y="210.841966" style="fill: #1f77b4; stroke: #1f77b4"/>
     <use xlink:href="#me831ed72c0" x="231.240992" y="193.713574" style="fill: #1f77b4; stroke: #1f77b4"/>
     <use xlink:href="#me831ed72c0" x="234.520331" y="193.048495" style="fill: #1f77b4; stroke: #1f77b4"/>
     <use xlink:href="#me831ed72c0" x="237.799669" y="235.21162" style="fill: #1f77b4; stroke: #1f77b4"/>
     <use xlink:href="#me831ed72c0" x="241.079008" y="212.946573" style="fill: #1f77b4; stroke: #1f77b4"/>
     <use xlink:href="#me831ed72c0" x="244.358347" y="224.781953" style="fill: #1f77b4; stroke: #1f77b4"/>
     <use xlink:href="#me831ed72c0" x="247.637686" y="229.745608" style="fill: #1f77b4; stroke: #1f77b4"/>
     <use xlink:href="#me831ed72c0" x="250.917025" y="202.791006" style="fill: #1f77b4; stroke: #1f77b4"/>
     <use xlink:href="#me831ed72c0" x="254.196364" y="221.617097" style="fill: #1f77b4; stroke: #1f77b4"/>
     <use xlink:href="#me831ed72c0" x="257.475702" y="219.773436" style="fill: #1f77b4; stroke: #1f77b4"/>
     <use xlink:href="#me831ed72c0" x="260.755041" y="196.656431" style="fill: #1f77b4; stroke: #1f77b4"/>
     <use xlink:href="#me831ed72c0" x="264.03438" y="221.697963" style="fill: #1f77b4; stroke: #1f77b4"/>
     <use xlink:href="#me831ed72c0" x="267.313719" y="227.09221" style="fill: #1f77b4; stroke: #1f77b4"/>
     <use xlink:href="#me831ed72c0" x="270.593058" y="233.647895" style="fill: #1f77b4; stroke: #1f77b4"/>
     <use xlink:href="#me831ed72c0" x="273.872397" y="231.912728" style="fill: #1f77b4; stroke: #1f77b4"/>
     <use xlink:href="#me831ed72c0" x="277.151736" y="219.72261" style="fill: #1f77b4; stroke: #1f77b4"/>
     <use xlink:href="#me831ed72c0" x="280.431074" y="239.527094" style="fill: #1f77b4; stroke: #1f77b4"/>
     <use xlink:href="#me831ed72c0" x="283.710413" y="242.616739" style="fill: #1f77b4; stroke: #1f77b4"/>
     <use xlink:href="#me831ed72c0" x="286.989752" y="226.020094" style="fill: #1f77b4; stroke: #1f77b4"/>
     <use xlink:href="#me831ed72c0" x="290.269091" y="231.547861" style="fill: #1f77b4; stroke: #1f77b4"/>
     <use xlink:href="#me831ed72c0" x="293.54843" y="233.079195" style="fill: #1f77b4; stroke: #1f77b4"/>
     <use xlink:href="#me831ed72c0" x="296.827769" y="245.085173" style="fill: #1f77b4; stroke: #1f77b4"/>
     <use xlink:href="#me831ed72c0" x="300.107107" y="225.354065" style="fill: #1f77b4; stroke: #1f77b4"/>
     <use xlink:href="#me831ed72c0" x="303.386446" y="238.507739" style="fill: #1f77b4; stroke: #1f77b4"/>
     <use xlink:href="#me831ed72c0" x="306.665785" y="248.847166" style="fill: #1f77b4; stroke: #1f77b4"/>
     <use xlink:href="#me831ed72c0" x="309.945124" y="240.604325" style="fill: #1f77b4; stroke: #1f77b4"/>
     <use xlink:href="#me831ed72c0" x="313.224463" y="236.509409" style="fill: #1f77b4; stroke: #1f77b4"/>
     <use xlink:href="#me831ed72c0" x="316.503802" y="235.403579" style="fill: #1f77b4; stroke: #1f77b4"/>
     <use xlink:href="#me831ed72c0" x="319.78314" y="268.792313" style="fill: #1f77b4; stroke: #1f77b4"/>
     <use xlink:href="#me831ed72c0" x="323.062479" y="264.584799" style="fill: #1f77b4; stroke: #1f77b4"/>
     <use xlink:href="#me831ed72c0" x="326.341818" y="254.978562" style="fill: #1f77b4; stroke: #1f77b4"/>
     <use xlink:href="#me831ed72c0" x="329.621157" y="269.319613" style="fill: #1f77b4; stroke: #1f77b4"/>
     <use xlink:href="#me831ed72c0" x="332.900496" y="273.588671" style="fill: #1f77b4; stroke: #1f77b4"/>
     <use xlink:href="#me831ed72c0" x="336.179835" y="232.255773" style="fill: #1f77b4; stroke: #1f77b4"/>
     <use xlink:href="#me831ed72c0" x="339.459174" y="257.51453" style="fill: #1f77b4; stroke: #1f77b4"/>
     <use xlink:href="#me831ed72c0" x="342.738512" y="244.66048" style="fill: #1f77b4; stroke: #1f77b4"/>
     <use xlink:href="#me831ed72c0" x="346.017851" y="255.921953" style="fill: #1f77b4; stroke: #1f77b4"/>
     <use xlink:href="#me831ed72c0" x="349.29719" y="272.227746" style="fill: #1f77b4; stroke: #1f77b4"/>
     <use xlink:href="#me831ed72c0" x="352.576529" y="276.845942" style="fill: #1f77b4; stroke: #1f77b4"/>
     <use xlink:href="#me831ed72c0" x="355.855868" y="257.81556" style="fill: #1f77b4; stroke: #1f77b4"/>
     <use xlink:href="#me831ed72c0" x="359.135207" y="265.35383" style="fill: #1f77b4; stroke: #1f77b4"/>
     <use xlink:href="#me831ed72c0" x="362.414545" y="264.571914" style="fill: #1f77b4; stroke: #1f77b4"/>
     <use xlink:href="#me831ed72c0" x="365.693884" y="273.541189" style="fill: #1f77b4; stroke: #1f77b4"/>
     <use xlink:href="#me831ed72c0" x="368.973223" y="281.781534" style="fill: #1f77b4; stroke: #1f77b4"/>
     <use xlink:href="#me831ed72c0" x="372.252562" y="280.602227" style="fill: #1f77b4; stroke: #1f77b4"/>
     <use xlink:href="#me831ed72c0" x="375.531901" y="271.805795" style="fill: #1f77b4; stroke: #1f77b4"/>
     <use xlink:href="#me831ed72c0" x="378.81124" y="287.650781" style="fill: #1f77b4; stroke: #1f77b4"/>
     <use xlink:href="#me831ed72c0" x="382.090579" y="295.488" style="fill: #1f77b4; stroke: #1f77b4"/>
     <use xlink:href="#me831ed72c0" x="385.369917" y="263.100716" style="fill: #1f77b4; stroke: #1f77b4"/>
     <use xlink:href="#me831ed72c0" x="388.649256" y="272.432283" style="fill: #1f77b4; stroke: #1f77b4"/>
     <use xlink:href="#me831ed72c0" x="391.928595" y="287.088001" style="fill: #1f77b4; stroke: #1f77b4"/>
     <use xlink:href="#me831ed72c0" x="395.207934" y="281.036393" style="fill: #1f77b4; stroke: #1f77b4"/>
     <use xlink:href="#me831ed72c0" x="398.487273" y="291.706622" style="fill: #1f77b4; stroke: #1f77b4"/>
    </g>
   </g>
   <g id="line2d_15">
    <path d="M 73.832727 63.911077 
L 77.112066 62.607279 
L 80.391405 59.727408 
L 83.670744 59.476201 
L 86.950083 63.152718 
L 90.229421 62.0667 
L 93.50876 62.899561 
L 96.788099 65.745212 
L 100.067438 66.88338 
L 103.346777 69.732655 
L 106.626116 70.117178 
L 109.905455 71.393143 
L 113.184793 70.26088 
L 116.464132 72.554919 
L 119.743471 73.266986 
L 123.02281 75.103056 
L 126.302149 79.276122 
L 129.581488 82.416702 
L 132.860826 85.634085 
L 136.140165 90.175147 
L 139.419504 95.520943 
L 142.698843 102.059353 
L 145.978182 106.289636 
L 149.257521 111.509306 
L 152.53686 119.63388 
L 155.816198 125.477382 
L 159.095537 132.636457 
L 162.374876 139.51054 
L 165.654215 146.610785 
L 168.933554 151.145865 
L 172.212893 156.351239 
L 175.492231 163.196981 
L 178.77157 167.689976 
L 182.050909 170.558683 
L 185.330248 175.852911 
L 188.609587 180.593766 
L 191.888926 183.886305 
L 195.168264 187.267278 
L 198.447603 188.392519 
L 201.726942 192.80892 
L 205.006281 197.163919 
L 208.28562 200.971007 
L 211.564959 205.665793 
L 214.844298 207.718478 
L 218.123636 209.816252 
L 221.402975 212.441943 
L 224.682314 213.892491 
L 227.961653 213.851938 
L 231.240992 212.482184 
L 234.520331 211.020825 
L 237.799669 212.857486 
L 241.079008 213.159962 
L 244.358347 214.0183 
L 247.637686 216.043639 
L 250.917025 215.881602 
L 254.196364 217.776117 
L 257.475702 219.482284 
L 260.755041 220.656557 
L 264.03438 222.489844 
L 267.313719 223.895542 
L 270.593058 224.124542 
L 273.872397 226.836447 
L 277.151736 226.190655 
L 280.431074 228.99132 
L 283.710413 231.931755 
L 286.989752 231.684596 
L 290.269091 232.894271 
L 293.54843 234.670904 
L 296.827769 237.251486 
L 300.107107 236.753073 
L 303.386446 235.576804 
L 306.665785 237.802934 
L 309.945124 239.323774 
L 313.224463 239.282252 
L 316.503802 239.877314 
L 319.78314 243.875485 
L 323.062479 246.345897 
L 326.341818 249.357494 
L 329.621157 253.443809 
L 332.900496 257.589907 
L 336.179835 256.491923 
L 339.459174 256.771703 
L 342.738512 256.979364 
L 346.017851 257.849884 
L 349.29719 260.58474 
L 352.576529 263.59903 
L 355.855868 265.909 
L 359.135207 267.897591 
L 362.414545 268.799219 
L 365.693884 271.386256 
L 368.973223 273.558328 
L 372.252562 277.256967 
L 375.531901 278.540984 
L 378.81124 281.802421 
L 382.090579 284.648436 
L 385.369917 284.618231 
L 388.649256 283.3388 
L 391.928595 286.048021 
L 395.207934 287.094893 
L 398.487273 286.261091 
" clip-path="url(#pe9b644ce90)" style="fill: none; stroke: #ff0000; stroke-width: 1.5; stroke-linecap: square"/>
   </g>
   <g id="patch_3">
    <path d="M 57.6 307.584 
L 57.6 41.472 
" style="fill: none; stroke: #000000; stroke-width: 0.8; stroke-linejoin: miter; stroke-linecap: square"/>
   </g>
   <g id="patch_4">
    <path d="M 414.72 307.584 
L 414.72 41.472 
" style="fill: none; stroke: #000000; stroke-width: 0.8; stroke-linejoin: miter; stroke-linecap: square"/>
   </g>
   <g id="patch_5">
    <path d="M 57.6 307.584 
L 414.72 307.584 
" style="fill: none; stroke: #000000; stroke-width: 0.8; stroke-linejoin: miter; stroke-linecap: square"/>
   </g>
   <g id="patch_6">
    <path d="M 57.6 41.472 
L 414.72 41.472 
" style="fill: none; stroke: #000000; stroke-width: 0.8; stroke-linejoin: miter; stroke-linecap: square"/>
   </g>
   <g id="legend_1">
    <g id="patch_7">
     <path d="M 316.577812 93.506375 
L 407.72 93.506375 
Q 409.72 93.506375 409.72 91.506375 
L 409.72 48.472 
Q 409.72 46.472 407.72 46.472 
L 316.577812 46.472 
Q 314.577812 46.472 314.577812 48.472 
L 314.577812 91.506375 
Q 314.577812 93.506375 316.577812 93.506375 
z
" style="fill: #ffffff; opacity: 0.8; stroke: #cccccc; stroke-linejoin: miter"/>
    </g>
    <g id="line2d_16">
     <path d="M 318.577812 54.570438 
L 328.577812 54.570438 
L 338.577812 54.570438 
" style="fill: none; stroke: #0000ff; stroke-width: 1.5; stroke-linecap: square"/>
    </g>
    <g id="text_13">
     <!-- state -->
     <g transform="translate(346.577812 58.070438) scale(0.1 -0.1)">
      <defs>
       <path id="DejaVuSans-73" d="M 2834 3397 
L 2834 2853 
Q 2591 2978 2328 3040 
Q 2066 3103 1784 3103 
Q 1356 3103 1142 2972 
Q 928 2841 928 2578 
Q 928 2378 1081 2264 
Q 1234 2150 1697 2047 
L 1894 2003 
Q 2506 1872 2764 1633 
Q 3022 1394 3022 966 
Q 3022 478 2636 193 
Q 2250 -91 1575 -91 
Q 1294 -91 989 -36 
Q 684 19 347 128 
L 347 722 
Q 666 556 975 473 
Q 1284 391 1588 391 
Q 1994 391 2212 530 
Q 2431 669 2431 922 
Q 2431 1156 2273 1281 
Q 2116 1406 1581 1522 
L 1381 1569 
Q 847 1681 609 1914 
Q 372 2147 372 2553 
Q 372 3047 722 3315 
Q 1072 3584 1716 3584 
Q 2034 3584 2315 3537 
Q 2597 3491 2834 3397 
z
" transform="scale(0.015625)"/>
       <path id="DejaVuSans-74" d="M 1172 4494 
L 1172 3500 
L 2356 3500 
L 2356 3053 
L 1172 3053 
L 1172 1153 
Q 1172 725 1289 603 
Q 1406 481 1766 481 
L 2356 481 
L 2356 0 
L 1766 0 
Q 1100 0 847 248 
Q 594 497 594 1153 
L 594 3053 
L 172 3053 
L 172 3500 
L 594 3500 
L 594 4494 
L 1172 4494 
z
" transform="scale(0.015625)"/>
       <path id="DejaVuSans-61" d="M 2194 1759 
Q 1497 1759 1228 1600 
Q 959 1441 959 1056 
Q 959 750 1161 570 
Q 1363 391 1709 391 
Q 2188 391 2477 730 
Q 2766 1069 2766 1631 
L 2766 1759 
L 2194 1759 
z
M 3341 1997 
L 3341 0 
L 2766 0 
L 2766 531 
Q 2569 213 2275 61 
Q 1981 -91 1556 -91 
Q 1019 -91 701 211 
Q 384 513 384 1019 
Q 384 1609 779 1909 
Q 1175 2209 1959 2209 
L 2766 2209 
L 2766 2266 
Q 2766 2663 2505 2880 
Q 2244 3097 1772 3097 
Q 1472 3097 1187 3025 
Q 903 2953 641 2809 
L 641 3341 
Q 956 3463 1253 3523 
Q 1550 3584 1831 3584 
Q 2591 3584 2966 3190 
Q 3341 2797 3341 1997 
z
" transform="scale(0.015625)"/>
       <path id="DejaVuSans-65" d="M 3597 1894 
L 3597 1613 
L 953 1613 
Q 991 1019 1311 708 
Q 1631 397 2203 397 
Q 2534 397 2845 478 
Q 3156 559 3463 722 
L 3463 178 
Q 3153 47 2828 -22 
Q 2503 -91 2169 -91 
Q 1331 -91 842 396 
Q 353 884 353 1716 
Q 353 2575 817 3079 
Q 1281 3584 2069 3584 
Q 2775 3584 3186 3129 
Q 3597 2675 3597 1894 
z
M 3022 2063 
Q 3016 2534 2758 2815 
Q 2500 3097 2075 3097 
Q 1594 3097 1305 2825 
Q 1016 2553 972 2059 
L 3022 2063 
z
" transform="scale(0.015625)"/>
      </defs>
      <use xlink:href="#DejaVuSans-73"/>
      <use xlink:href="#DejaVuSans-74" transform="translate(52.099609 0)"/>
      <use xlink:href="#DejaVuSans-61" transform="translate(91.308594 0)"/>
      <use xlink:href="#DejaVuSans-74" transform="translate(152.587891 0)"/>
      <use xlink:href="#DejaVuSans-65" transform="translate(191.796875 0)"/>
     </g>
    </g>
    <g id="line2d_17">
     <g>
      <use xlink:href="#me831ed72c0" x="328.577812" y="69.248563" style="fill: #1f77b4; stroke: #1f77b4"/>
     </g>
    </g>
    <g id="text_14">
     <!-- observation -->
     <g transform="translate(346.577812 72.748563) scale(0.1 -0.1)">
      <defs>
       <path id="DejaVuSans-6f" d="M 1959 3097 
Q 1497 3097 1228 2736 
Q 959 2375 959 1747 
Q 959 1119 1226 758 
Q 1494 397 1959 397 
Q 2419 397 2687 759 
Q 2956 1122 2956 1747 
Q 2956 2369 2687 2733 
Q 2419 3097 1959 3097 
z
M 1959 3584 
Q 2709 3584 3137 3096 
Q 3566 2609 3566 1747 
Q 3566 888 3137 398 
Q 2709 -91 1959 -91 
Q 1206 -91 779 398 
Q 353 888 353 1747 
Q 353 2609 779 3096 
Q 1206 3584 1959 3584 
z
" transform="scale(0.015625)"/>
       <path id="DejaVuSans-62" d="M 3116 1747 
Q 3116 2381 2855 2742 
Q 2594 3103 2138 3103 
Q 1681 3103 1420 2742 
Q 1159 2381 1159 1747 
Q 1159 1113 1420 752 
Q 1681 391 2138 391 
Q 2594 391 2855 752 
Q 3116 1113 3116 1747 
z
M 1159 2969 
Q 1341 3281 1617 3432 
Q 1894 3584 2278 3584 
Q 2916 3584 3314 3078 
Q 3713 2572 3713 1747 
Q 3713 922 3314 415 
Q 2916 -91 2278 -91 
Q 1894 -91 1617 61 
Q 1341 213 1159 525 
L 1159 0 
L 581 0 
L 581 4863 
L 1159 4863 
L 1159 2969 
z
" transform="scale(0.015625)"/>
       <path id="DejaVuSans-72" d="M 2631 2963 
Q 2534 3019 2420 3045 
Q 2306 3072 2169 3072 
Q 1681 3072 1420 2755 
Q 1159 2438 1159 1844 
L 1159 0 
L 581 0 
L 581 3500 
L 1159 3500 
L 1159 2956 
Q 1341 3275 1631 3429 
Q 1922 3584 2338 3584 
Q 2397 3584 2469 3576 
Q 2541 3569 2628 3553 
L 2631 2963 
z
" transform="scale(0.015625)"/>
       <path id="DejaVuSans-76" d="M 191 3500 
L 800 3500 
L 1894 563 
L 2988 3500 
L 3597 3500 
L 2284 0 
L 1503 0 
L 191 3500 
z
" transform="scale(0.015625)"/>
       <path id="DejaVuSans-69" d="M 603 3500 
L 1178 3500 
L 1178 0 
L 603 0 
L 603 3500 
z
M 603 4863 
L 1178 4863 
L 1178 4134 
L 603 4134 
L 603 4863 
z
" transform="scale(0.015625)"/>
       <path id="DejaVuSans-6e" d="M 3513 2113 
L 3513 0 
L 2938 0 
L 2938 2094 
Q 2938 2591 2744 2837 
Q 2550 3084 2163 3084 
Q 1697 3084 1428 2787 
Q 1159 2491 1159 1978 
L 1159 0 
L 581 0 
L 581 3500 
L 1159 3500 
L 1159 2956 
Q 1366 3272 1645 3428 
Q 1925 3584 2291 3584 
Q 2894 3584 3203 3211 
Q 3513 2838 3513 2113 
z
" transform="scale(0.015625)"/>
      </defs>
      <use xlink:href="#DejaVuSans-6f"/>
      <use xlink:href="#DejaVuSans-62" transform="translate(61.181641 0)"/>
      <use xlink:href="#DejaVuSans-73" transform="translate(124.658203 0)"/>
      <use xlink:href="#DejaVuSans-65" transform="translate(176.757812 0)"/>
      <use xlink:href="#DejaVuSans-72" transform="translate(238.28125 0)"/>
      <use xlink:href="#DejaVuSans-76" transform="translate(279.394531 0)"/>
      <use xlink:href="#DejaVuSans-61" transform="translate(338.574219 0)"/>
      <use xlink:href="#DejaVuSans-74" transform="translate(399.853516 0)"/>
      <use xlink:href="#DejaVuSans-69" transform="translate(439.0625 0)"/>
      <use xlink:href="#DejaVuSans-6f" transform="translate(466.845703 0)"/>
      <use xlink:href="#DejaVuSans-6e" transform="translate(528.027344 0)"/>
     </g>
    </g>
    <g id="line2d_18">
     <path d="M 318.577812 83.926688 
L 328.577812 83.926688 
L 338.577812 83.926688 
" style="fill: none; stroke: #ff0000; stroke-width: 1.5; stroke-linecap: square"/>
    </g>
    <g id="text_15">
     <!-- estimate -->
     <g transform="translate(346.577812 87.426688) scale(0.1 -0.1)">
      <defs>
       <path id="DejaVuSans-6d" d="M 3328 2828 
Q 3544 3216 3844 3400 
Q 4144 3584 4550 3584 
Q 5097 3584 5394 3201 
Q 5691 2819 5691 2113 
L 5691 0 
L 5113 0 
L 5113 2094 
Q 5113 2597 4934 2840 
Q 4756 3084 4391 3084 
Q 3944 3084 3684 2787 
Q 3425 2491 3425 1978 
L 3425 0 
L 2847 0 
L 2847 2094 
Q 2847 2600 2669 2842 
Q 2491 3084 2119 3084 
Q 1678 3084 1418 2786 
Q 1159 2488 1159 1978 
L 1159 0 
L 581 0 
L 581 3500 
L 1159 3500 
L 1159 2956 
Q 1356 3278 1631 3431 
Q 1906 3584 2284 3584 
Q 2666 3584 2933 3390 
Q 3200 3197 3328 2828 
z
" transform="scale(0.015625)"/>
      </defs>
      <use xlink:href="#DejaVuSans-65"/>
      <use xlink:href="#DejaVuSans-73" transform="translate(61.523438 0)"/>
      <use xlink:href="#DejaVuSans-74" transform="translate(113.623047 0)"/>
      <use xlink:href="#DejaVuSans-69" transform="translate(152.832031 0)"/>
      <use xlink:href="#DejaVuSans-6d" transform="translate(180.615234 0)"/>
      <use xlink:href="#DejaVuSans-61" transform="translate(278.027344 0)"/>
      <use xlink:href="#DejaVuSans-74" transform="translate(339.306641 0)"/>
      <use xlink:href="#DejaVuSans-65" transform="translate(378.515625 0)"/>
     </g>
    </g>
   </g>
  </g>
 </g>
 <defs>
  <clipPath id="pe9b644ce90">
   <rect x="57.6" y="41.472" width="357.12" height="266.112"/>
  </clipPath>
 </defs>
</svg>
