<?xml version="1.0" encoding="utf-8" standalone="no"?>
<!DOCTYPE svg PUBLIC "-//W3C//DTD SVG 1.1//EN"
  "http://www.w3.org/Graphics/SVG/1.1/DTD/svg11.dtd">
<svg xmlns:xlink="http://www.w3.org/1999/xlink" width="460.8pt" height="345.6pt" viewBox="0 0 460.8 345.6" xmlns="http://www.w3.org/2000/svg" version="1.1">
 <metadata>
  <rdf:RDF xmlns:dc="http://purl.org/dc/elements/1.1/" xmlns:cc="http://creativecommons.org/ns#" xmlns:rdf="http://www.w3.org/1999/02/22-rdf-syntax-ns#">
   <cc:Work>
    <dc:type rdf:resource="http://purl.org/dc/dcmitype/StillImage"/>
    <dc:date>2025-02-14T21:49:08.831810</dc:date>
    <dc:format>image/svg+xml</dc:format>
    <dc:creator>
     <cc:Agent>
      <dc:title>Matplotlib v3.10.0, https://matplotlib.org/</dc:title>
     </cc:Agent>
    </dc:creator>
   </cc:Work>
  </rdf:RDF>
 </metadata>
 <defs>
  <style type="text/css">*{stroke-linejoin: round; stroke-linecap: butt}</style>
 </defs>
 <g id="figure_1">
  <g id="patch_1">
   <path d="M 0 345.6 
L 460.8 345.6 
L 460.8 0 
L 0 0 
z
" style="fill: #ffffff"/>
  </g>
  <g id="axes_1">
   <g id="patch_2">
    <path d="M 57.6 307.584 
L 414.72 307.584 
L 414.72 41.472 
L 57.6 41.472 
z
" style="fill: #ffffff"/>
   </g>
   <g id="matplotlib.axis_1">
    <g id="xtick_1">
     <g id="line2d_1">
      <defs>
       <path id="mcd37505685" d="M 0 0 
L 0 3.5 
" style="stroke: #000000; stroke-width: 0.8"/>
      </defs>
      <g>
       <use xlink:href="#mcd37505685" x="73.832727" y="307.584" style="stroke: #000000; stroke-width: 0.8"/>
      </g>
     </g>
     <g id="text_1">
      <!-- 0 -->
      <g transform="translate(70.651477 322.182437) scale(0.1 -0.1)">
       <defs>
        <path id="DejaVuSans-30" d="M 2034 4250 
Q 1547 4250 1301 3770 
Q 1056 3291 1056 2328 
Q 1056 1369 1301 889 
Q 1547 409 2034 409 
Q 2525 409 2770 889 
Q 3016 1369 3016 2328 
Q 3016 3291 2770 3770 
Q 2525 4250 2034 4250 
z
M 2034 4750 
Q 2819 4750 3233 4129 
Q 3647 3509 3647 2328 
Q 3647 1150 3233 529 
Q 2819 -91 2034 -91 
Q 1250 -91 836 529 
Q 422 1150 422 2328 
Q 422 3509 836 4129 
Q 1250 4750 2034 4750 
z
" transform="scale(0.015625)"/>
       </defs>
       <use xlink:href="#DejaVuSans-30"/>
      </g>
     </g>
    </g>
    <g id="xtick_2">
     <g id="line2d_2">
      <g>
       <use xlink:href="#mcd37505685" x="139.419504" y="307.584" style="stroke: #000000; stroke-width: 0.8"/>
      </g>
     </g>
     <g id="text_2">
      <!-- 20 -->
      <g transform="translate(133.057004 322.182437) scale(0.1 -0.1)">
       <defs>
        <path id="DejaVuSans-32" d="M 1228 531 
L 3431 531 
L 3431 0 
L 469 0 
L 469 531 
Q 828 903 1448 1529 
Q 2069 2156 2228 2338 
Q 2531 2678 2651 2914 
Q 2772 3150 2772 3378 
Q 2772 3750 2511 3984 
Q 2250 4219 1831 4219 
Q 1534 4219 1204 4116 
Q 875 4013 500 3803 
L 500 4441 
Q 881 4594 1212 4672 
Q 1544 4750 1819 4750 
Q 2544 4750 2975 4387 
Q 3406 4025 3406 3419 
Q 3406 3131 3298 2873 
Q 3191 2616 2906 2266 
Q 2828 2175 2409 1742 
Q 1991 1309 1228 531 
z
" transform="scale(0.015625)"/>
       </defs>
       <use xlink:href="#DejaVuSans-32"/>
       <use xlink:href="#DejaVuSans-30" transform="translate(63.623047 0)"/>
      </g>
     </g>
    </g>
    <g id="xtick_3">
     <g id="line2d_3">
      <g>
       <use xlink:href="#mcd37505685" x="205.006281" y="307.584" style="stroke: #000000; stroke-width: 0.8"/>
      </g>
     </g>
     <g id="text_3">
      <!-- 40 -->
      <g transform="translate(198.643781 322.182437) scale(0.1 -0.1)">
       <defs>
        <path id="DejaVuSans-34" d="M 2419 4116 
L 825 1625 
L 2419 1625 
L 2419 4116 
z
M 2253 4666 
L 3047 4666 
L 3047 1625 
L 3713 1625 
L 3713 1100 
L 3047 1100 
L 3047 0 
L 2419 0 
L 2419 1100 
L 313 1100 
L 313 1709 
L 2253 4666 
z
" transform="scale(0.015625)"/>
       </defs>
       <use xlink:href="#DejaVuSans-34"/>
       <use xlink:href="#DejaVuSans-30" transform="translate(63.623047 0)"/>
      </g>
     </g>
    </g>
    <g id="xtick_4">
     <g id="line2d_4">
      <g>
       <use xlink:href="#mcd37505685" x="270.593058" y="307.584" style="stroke: #000000; stroke-width: 0.8"/>
      </g>
     </g>
     <g id="text_4">
      <!-- 60 -->
      <g transform="translate(264.230558 322.182437) scale(0.1 -0.1)">
       <defs>
        <path id="DejaVuSans-36" d="M 2113 2584 
Q 1688 2584 1439 2293 
Q 1191 2003 1191 1497 
Q 1191 994 1439 701 
Q 1688 409 2113 409 
Q 2538 409 2786 701 
Q 3034 994 3034 1497 
Q 3034 2003 2786 2293 
Q 2538 2584 2113 2584 
z
M 3366 4563 
L 3366 3988 
Q 3128 4100 2886 4159 
Q 2644 4219 2406 4219 
Q 1781 4219 1451 3797 
Q 1122 3375 1075 2522 
Q 1259 2794 1537 2939 
Q 1816 3084 2150 3084 
Q 2853 3084 3261 2657 
Q 3669 2231 3669 1497 
Q 3669 778 3244 343 
Q 2819 -91 2113 -91 
Q 1303 -91 875 529 
Q 447 1150 447 2328 
Q 447 3434 972 4092 
Q 1497 4750 2381 4750 
Q 2619 4750 2861 4703 
Q 3103 4656 3366 4563 
z
" transform="scale(0.015625)"/>
       </defs>
       <use xlink:href="#DejaVuSans-36"/>
       <use xlink:href="#DejaVuSans-30" transform="translate(63.623047 0)"/>
      </g>
     </g>
    </g>
    <g id="xtick_5">
     <g id="line2d_5">
      <g>
       <use xlink:href="#mcd37505685" x="336.179835" y="307.584" style="stroke: #000000; stroke-width: 0.8"/>
      </g>
     </g>
     <g id="text_5">
      <!-- 80 -->
      <g transform="translate(329.817335 322.182437) scale(0.1 -0.1)">
       <defs>
        <path id="DejaVuSans-38" d="M 2034 2216 
Q 1584 2216 1326 1975 
Q 1069 1734 1069 1313 
Q 1069 891 1326 650 
Q 1584 409 2034 409 
Q 2484 409 2743 651 
Q 3003 894 3003 1313 
Q 3003 1734 2745 1975 
Q 2488 2216 2034 2216 
z
M 1403 2484 
Q 997 2584 770 2862 
Q 544 3141 544 3541 
Q 544 4100 942 4425 
Q 1341 4750 2034 4750 
Q 2731 4750 3128 4425 
Q 3525 4100 3525 3541 
Q 3525 3141 3298 2862 
Q 3072 2584 2669 2484 
Q 3125 2378 3379 2068 
Q 3634 1759 3634 1313 
Q 3634 634 3220 271 
Q 2806 -91 2034 -91 
Q 1263 -91 848 271 
Q 434 634 434 1313 
Q 434 1759 690 2068 
Q 947 2378 1403 2484 
z
M 1172 3481 
Q 1172 3119 1398 2916 
Q 1625 2713 2034 2713 
Q 2441 2713 2670 2916 
Q 2900 3119 2900 3481 
Q 2900 3844 2670 4047 
Q 2441 4250 2034 4250 
Q 1625 4250 1398 4047 
Q 1172 3844 1172 3481 
z
" transform="scale(0.015625)"/>
       </defs>
       <use xlink:href="#DejaVuSans-38"/>
       <use xlink:href="#DejaVuSans-30" transform="translate(63.623047 0)"/>
      </g>
     </g>
    </g>
    <g id="xtick_6">
     <g id="line2d_6">
      <g>
       <use xlink:href="#mcd37505685" x="401.766612" y="307.584" style="stroke: #000000; stroke-width: 0.8"/>
      </g>
     </g>
     <g id="text_6">
      <!-- 100 -->
      <g transform="translate(392.222862 322.182437) scale(0.1 -0.1)">
       <defs>
        <path id="DejaVuSans-31" d="M 794 531 
L 1825 531 
L 1825 4091 
L 703 3866 
L 703 4441 
L 1819 4666 
L 2450 4666 
L 2450 531 
L 3481 531 
L 3481 0 
L 794 0 
L 794 531 
z
" transform="scale(0.015625)"/>
       </defs>
       <use xlink:href="#DejaVuSans-31"/>
       <use xlink:href="#DejaVuSans-30" transform="translate(63.623047 0)"/>
       <use xlink:href="#DejaVuSans-30" transform="translate(127.246094 0)"/>
      </g>
     </g>
    </g>
   </g>
   <g id="matplotlib.axis_2">
    <g id="ytick_1">
     <g id="line2d_7">
      <defs>
       <path id="mdee4d1c8cc" d="M 0 0 
L -3.5 0 
" style="stroke: #000000; stroke-width: 0.8"/>
      </defs>
      <g>
       <use xlink:href="#mdee4d1c8cc" x="57.6" y="269.290059" style="stroke: #000000; stroke-width: 0.8"/>
      </g>
     </g>
     <g id="text_7">
      <!-- 0 -->
      <g transform="translate(44.2375 273.089278) scale(0.1 -0.1)">
       <use xlink:href="#DejaVuSans-30"/>
      </g>
     </g>
    </g>
    <g id="ytick_2">
     <g id="line2d_8">
      <g>
       <use xlink:href="#mdee4d1c8cc" x="57.6" y="225.893779" style="stroke: #000000; stroke-width: 0.8"/>
      </g>
     </g>
     <g id="text_8">
      <!-- 200 -->
      <g transform="translate(31.5125 229.692998) scale(0.1 -0.1)">
       <use xlink:href="#DejaVuSans-32"/>
       <use xlink:href="#DejaVuSans-30" transform="translate(63.623047 0)"/>
       <use xlink:href="#DejaVuSans-30" transform="translate(127.246094 0)"/>
      </g>
     </g>
    </g>
    <g id="ytick_3">
     <g id="line2d_9">
      <g>
       <use xlink:href="#mdee4d1c8cc" x="57.6" y="182.497498" style="stroke: #000000; stroke-width: 0.8"/>
      </g>
     </g>
     <g id="text_9">
      <!-- 400 -->
      <g transform="translate(31.5125 186.296717) scale(0.1 -0.1)">
       <use xlink:href="#DejaVuSans-34"/>
       <use xlink:href="#DejaVuSans-30" transform="translate(63.623047 0)"/>
       <use xlink:href="#DejaVuSans-30" transform="translate(127.246094 0)"/>
      </g>
     </g>
    </g>
    <g id="ytick_4">
     <g id="line2d_10">
      <g>
       <use xlink:href="#mdee4d1c8cc" x="57.6" y="139.101218" style="stroke: #000000; stroke-width: 0.8"/>
      </g>
     </g>
     <g id="text_10">
      <!-- 600 -->
      <g transform="translate(31.5125 142.900436) scale(0.1 -0.1)">
       <use xlink:href="#DejaVuSans-36"/>
       <use xlink:href="#DejaVuSans-30" transform="translate(63.623047 0)"/>
       <use xlink:href="#DejaVuSans-30" transform="translate(127.246094 0)"/>
      </g>
     </g>
    </g>
    <g id="ytick_5">
     <g id="line2d_11">
      <g>
       <use xlink:href="#mdee4d1c8cc" x="57.6" y="95.704937" style="stroke: #000000; stroke-width: 0.8"/>
      </g>
     </g>
     <g id="text_11">
      <!-- 800 -->
      <g transform="translate(31.5125 99.504156) scale(0.1 -0.1)">
       <use xlink:href="#DejaVuSans-38"/>
       <use xlink:href="#DejaVuSans-30" transform="translate(63.623047 0)"/>
       <use xlink:href="#DejaVuSans-30" transform="translate(127.246094 0)"/>
      </g>
     </g>
    </g>
    <g id="ytick_6">
     <g id="line2d_12">
      <g>
       <use xlink:href="#mdee4d1c8cc" x="57.6" y="52.308656" style="stroke: #000000; stroke-width: 0.8"/>
      </g>
     </g>
     <g id="text_12">
      <!-- 1000 -->
      <g transform="translate(25.15 56.107875) scale(0.1 -0.1)">
       <use xlink:href="#DejaVuSans-31"/>
       <use xlink:href="#DejaVuSans-30" transform="translate(63.623047 0)"/>
       <use xlink:href="#DejaVuSans-30" transform="translate(127.246094 0)"/>
       <use xlink:href="#DejaVuSans-30" transform="translate(190.869141 0)"/>
      </g>
     </g>
    </g>
   </g>
   <g id="line2d_13">
    <path d="M 73.832727 270.667807 
L 77.112066 269.515726 
L 80.391405 268.294354 
L 83.670744 270.554385 
L 86.950083 271.29359 
L 90.229421 268.473946 
L 93.50876 265.127612 
L 96.788099 261.436189 
L 100.067438 262.568073 
L 103.346777 261.360016 
L 106.626116 258.637836 
L 109.905455 254.423156 
L 113.184793 253.515785 
L 116.464132 251.039536 
L 119.743471 252.403711 
L 123.02281 252.233222 
L 126.302149 253.169477 
L 129.581488 250.080627 
L 132.860826 245.252794 
L 136.140165 246.961834 
L 139.419504 246.522396 
L 142.698843 242.922162 
L 145.978182 239.054366 
L 149.257521 240.273695 
L 152.53686 235.374388 
L 155.816198 236.493098 
L 159.095537 239.176879 
L 162.374876 238.758242 
L 165.654215 238.491261 
L 168.933554 238.330448 
L 172.212893 238.837842 
L 175.492231 237.505907 
L 178.77157 232.275212 
L 182.050909 232.455746 
L 185.330248 232.572777 
L 188.609587 231.092597 
L 191.888926 230.693618 
L 195.168264 228.609957 
L 198.447603 225.289582 
L 201.726942 225.171059 
L 205.006281 224.521045 
L 208.28562 226.384217 
L 211.564959 224.990805 
L 214.844298 223.930188 
L 218.123636 222.515398 
L 221.402975 224.651468 
L 224.682314 222.042423 
L 227.961653 221.365794 
L 231.240992 222.28582 
L 234.520331 223.091335 
L 237.799669 219.951916 
L 241.079008 219.507612 
L 244.358347 217.252873 
L 247.637686 216.526356 
L 250.917025 216.51794 
L 254.196364 214.775248 
L 257.475702 213.404103 
L 260.755041 211.467947 
L 264.03438 211.767604 
L 267.313719 209.163767 
L 270.593058 206.17749 
L 273.872397 203.831234 
L 277.151736 203.362489 
L 280.431074 198.835729 
L 283.710413 199.479145 
L 286.989752 197.073116 
L 290.269091 199.246781 
L 293.54843 198.678152 
L 296.827769 198.276264 
L 300.107107 196.201007 
L 303.386446 195.602117 
L 306.665785 194.566606 
L 309.945124 194.512333 
L 313.224463 191.555782 
L 316.503802 191.865523 
L 319.78314 192.741481 
L 323.062479 191.082593 
L 326.341818 191.014315 
L 329.621157 193.186691 
L 332.900496 193.145207 
L 336.179835 191.987097 
L 339.459174 193.565172 
L 342.738512 192.249188 
L 346.017851 192.363564 
L 349.29719 189.036583 
L 352.576529 190.116247 
L 355.855868 188.009333 
L 359.135207 185.134318 
L 362.414545 184.623713 
L 365.693884 181.007233 
L 368.973223 181.781584 
L 372.252562 184.902736 
L 375.531901 181.355995 
L 378.81124 181.960583 
L 382.090579 184.077323 
L 385.369917 180.44902 
L 388.649256 179.139598 
L 391.928595 180.138289 
L 395.207934 178.027012 
L 398.487273 175.979209 
" clip-path="url(#pc01953eec2)" style="fill: none; stroke: #0000ff; stroke-width: 1.5; stroke-linecap: square"/>
   </g>
   <g id="line2d_14">
    <defs>
     <path id="mfd2cfbe8c0" d="M 0 3 
C 0.795609 3 1.55874 2.683901 2.12132 2.12132 
C 2.683901 1.55874 3 0.795609 3 0 
C 3 -0.795609 2.683901 -1.55874 2.12132 -2.12132 
C 1.55874 -2.683901 0.795609 -3 0 -3 
C -0.795609 -3 -1.55874 -2.683901 -2.12132 -2.12132 
C -2.683901 -1.55874 -3 -0.795609 -3 0 
C -3 0.795609 -2.683901 1.55874 -2.12132 2.12132 
C -1.55874 2.683901 -0.795609 3 0 3 
z
" style="stroke: #1f77b4"/>
    </defs>
    <g clip-path="url(#pc01953eec2)">
     <use xlink:href="#mfd2cfbe8c0" x="73.832727" y="285.672028" style="fill: #1f77b4; stroke: #1f77b4"/>
     <use xlink:href="#mfd2cfbe8c0" x="77.112066" y="230.199489" style="fill: #1f77b4; stroke: #1f77b4"/>
     <use xlink:href="#mfd2cfbe8c0" x="80.391405" y="274.920564" style="fill: #1f77b4; stroke: #1f77b4"/>
     <use xlink:href="#mfd2cfbe8c0" x="83.670744" y="281.223516" style="fill: #1f77b4; stroke: #1f77b4"/>
     <use xlink:href="#mfd2cfbe8c0" x="86.950083" y="229.122254" style="fill: #1f77b4; stroke: #1f77b4"/>
     <use xlink:href="#mfd2cfbe8c0" x="90.229421" y="294.77303" style="fill: #1f77b4; stroke: #1f77b4"/>
     <use xlink:href="#mfd2cfbe8c0" x="93.50876" y="295.488" style="fill: #1f77b4; stroke: #1f77b4"/>
     <use xlink:href="#mfd2cfbe8c0" x="96.788099" y="256.271558" style="fill: #1f77b4; stroke: #1f77b4"/>
     <use xlink:href="#mfd2cfbe8c0" x="100.067438" y="295.443521" style="fill: #1f77b4; stroke: #1f77b4"/>
     <use xlink:href="#mfd2cfbe8c0" x="103.346777" y="224.985059" style="fill: #1f77b4; stroke: #1f77b4"/>
     <use xlink:href="#mfd2cfbe8c0" x="106.626116" y="293.424581" style="fill: #1f77b4; stroke: #1f77b4"/>
     <use xlink:href="#mfd2cfbe8c0" x="109.905455" y="247.765069" style="fill: #1f77b4; stroke: #1f77b4"/>
     <use xlink:href="#mfd2cfbe8c0" x="113.184793" y="249.430514" style="fill: #1f77b4; stroke: #1f77b4"/>
     <use xlink:href="#mfd2cfbe8c0" x="116.464132" y="245.18393" style="fill: #1f77b4; stroke: #1f77b4"/>
     <use xlink:href="#mfd2cfbe8c0" x="119.743471" y="277.009702" style="fill: #1f77b4; stroke: #1f77b4"/>
     <use xlink:href="#mfd2cfbe8c0" x="123.02281" y="254.754684" style="fill: #1f77b4; stroke: #1f77b4"/>
     <use xlink:href="#mfd2cfbe8c0" x="126.302149" y="233.758663" style="fill: #1f77b4; stroke: #1f77b4"/>
     <use xlink:href="#mfd2cfbe8c0" x="129.581488" y="247.873231" style="fill: #1f77b4; stroke: #1f77b4"/>
     <use xlink:href="#mfd2cfbe8c0" x="132.860826" y="265.646201" style="fill: #1f77b4; stroke: #1f77b4"/>
     <use xlink:href="#mfd2cfbe8c0" x="136.140165" y="244.337556" style="fill: #1f77b4; stroke: #1f77b4"/>
     <use xlink:href="#mfd2cfbe8c0" x="139.419504" y="243.222099" style="fill: #1f77b4; stroke: #1f77b4"/>
     <use xlink:href="#mfd2cfbe8c0" x="142.698843" y="281.893917" style="fill: #1f77b4; stroke: #1f77b4"/>
     <use xlink:href="#mfd2cfbe8c0" x="145.978182" y="214.138992" style="fill: #1f77b4; stroke: #1f77b4"/>
     <use xlink:href="#mfd2cfbe8c0" x="149.257521" y="246.702189" style="fill: #1f77b4; stroke: #1f77b4"/>
     <use xlink:href="#mfd2cfbe8c0" x="152.53686" y="220.16591" style="fill: #1f77b4; stroke: #1f77b4"/>
     <use xlink:href="#mfd2cfbe8c0" x="155.816198" y="238.929425" style="fill: #1f77b4; stroke: #1f77b4"/>
     <use xlink:href="#mfd2cfbe8c0" x="159.095537" y="274.690507" style="fill: #1f77b4; stroke: #1f77b4"/>
     <use xlink:href="#mfd2cfbe8c0" x="162.374876" y="181.859526" style="fill: #1f77b4; stroke: #1f77b4"/>
     <use xlink:href="#mfd2cfbe8c0" x="165.654215" y="227.214717" style="fill: #1f77b4; stroke: #1f77b4"/>
     <use xlink:href="#mfd2cfbe8c0" x="168.933554" y="258.280349" style="fill: #1f77b4; stroke: #1f77b4"/>
     <use xlink:href="#mfd2cfbe8c0" x="172.212893" y="231.327993" style="fill: #1f77b4; stroke: #1f77b4"/>
     <use xlink:href="#mfd2cfbe8c0" x="175.492231" y="226.464451" style="fill: #1f77b4; stroke: #1f77b4"/>
     <use xlink:href="#mfd2cfbe8c0" x="178.77157" y="261.483828" style="fill: #1f77b4; stroke: #1f77b4"/>
     <use xlink:href="#mfd2cfbe8c0" x="182.050909" y="231.603277" style="fill: #1f77b4; stroke: #1f77b4"/>
     <use xlink:href="#mfd2cfbe8c0" x="185.330248" y="271.891671" style="fill: #1f77b4; stroke: #1f77b4"/>
     <use xlink:href="#mfd2cfbe8c0" x="188.609587" y="267.669221" style="fill: #1f77b4; stroke: #1f77b4"/>
     <use xlink:href="#mfd2cfbe8c0" x="191.888926" y="205.750821" style="fill: #1f77b4; stroke: #1f77b4"/>
     <use xlink:href="#mfd2cfbe8c0" x="195.168264" y="254.853451" style="fill: #1f77b4; stroke: #1f77b4"/>
     <use xlink:href="#mfd2cfbe8c0" x="198.447603" y="230.000044" style="fill: #1f77b4; stroke: #1f77b4"/>
     <use xlink:href="#mfd2cfbe8c0" x="201.726942" y="209.936466" style="fill: #1f77b4; stroke: #1f77b4"/>
     <use xlink:href="#mfd2cfbe8c0" x="205.006281" y="234.639361" style="fill: #1f77b4; stroke: #1f77b4"/>
     <use xlink:href="#mfd2cfbe8c0" x="208.28562" y="216.601255" style="fill: #1f77b4; stroke: #1f77b4"/>
     <use xlink:href="#mfd2cfbe8c0" x="211.564959" y="238.417731" style="fill: #1f77b4; stroke: #1f77b4"/>
     <use xlink:href="#mfd2cfbe8c0" x="214.844298" y="208.910341" style="fill: #1f77b4; stroke: #1f77b4"/>
     <use xlink:href="#mfd2cfbe8c0" x="218.123636" y="214.852307" style="fill: #1f77b4; stroke: #1f77b4"/>
     <use xlink:href="#mfd2cfbe8c0" x="221.402975" y="234.208357" style="fill: #1f77b4; stroke: #1f77b4"/>
     <use xlink:href="#mfd2cfbe8c0" x="224.682314" y="237.235975" style="fill: #1f77b4; stroke: #1f77b4"/>
     <use xlink:href="#mfd2cfbe8c0" x="227.961653" y="235.600269" style="fill: #1f77b4; stroke: #1f77b4"/>
     <use xlink:href="#mfd2cfbe8c0" x="231.240992" y="205.881023" style="fill: #1f77b4; stroke: #1f77b4"/>
     <use xlink:href="#mfd2cfbe8c0" x="234.520331" y="249.079039" style="fill: #1f77b4; stroke: #1f77b4"/>
     <use xlink:href="#mfd2cfbe8c0" x="237.799669" y="214.844517" style="fill: #1f77b4; stroke: #1f77b4"/>
     <use xlink:href="#mfd2cfbe8c0" x="241.079008" y="213.364745" style="fill: #1f77b4; stroke: #1f77b4"/>
     <use xlink:href="#mfd2cfbe8c0" x="244.358347" y="266.820288" style="fill: #1f77b4; stroke: #1f77b4"/>
     <use xlink:href="#mfd2cfbe8c0" x="247.637686" y="247.480998" style="fill: #1f77b4; stroke: #1f77b4"/>
     <use xlink:href="#mfd2cfbe8c0" x="250.917025" y="205.858331" style="fill: #1f77b4; stroke: #1f77b4"/>
     <use xlink:href="#mfd2cfbe8c0" x="254.196364" y="171.613785" style="fill: #1f77b4; stroke: #1f77b4"/>
     <use xlink:href="#mfd2cfbe8c0" x="257.475702" y="214.631632" style="fill: #1f77b4; stroke: #1f77b4"/>
     <use xlink:href="#mfd2cfbe8c0" x="260.755041" y="206.862037" style="fill: #1f77b4; stroke: #1f77b4"/>
     <use xlink:href="#mfd2cfbe8c0" x="264.03438" y="223.475597" style="fill: #1f77b4; stroke: #1f77b4"/>
     <use xlink:href="#mfd2cfbe8c0" x="267.313719" y="174.965583" style="fill: #1f77b4; stroke: #1f77b4"/>
     <use xlink:href="#mfd2cfbe8c0" x="270.593058" y="204.440797" style="fill: #1f77b4; stroke: #1f77b4"/>
     <use xlink:href="#mfd2cfbe8c0" x="273.872397" y="212.403335" style="fill: #1f77b4; stroke: #1f77b4"/>
     <use xlink:href="#mfd2cfbe8c0" x="277.151736" y="259.502079" style="fill: #1f77b4; stroke: #1f77b4"/>
     <use xlink:href="#mfd2cfbe8c0" x="280.431074" y="172.441738" style="fill: #1f77b4; stroke: #1f77b4"/>
     <use xlink:href="#mfd2cfbe8c0" x="283.710413" y="176.859794" style="fill: #1f77b4; stroke: #1f77b4"/>
     <use xlink:href="#mfd2cfbe8c0" x="286.989752" y="203.008513" style="fill: #1f77b4; stroke: #1f77b4"/>
     <use xlink:href="#mfd2cfbe8c0" x="290.269091" y="187.610397" style="fill: #1f77b4; stroke: #1f77b4"/>
     <use xlink:href="#mfd2cfbe8c0" x="293.54843" y="213.566453" style="fill: #1f77b4; stroke: #1f77b4"/>
     <use xlink:href="#mfd2cfbe8c0" x="296.827769" y="229.362307" style="fill: #1f77b4; stroke: #1f77b4"/>
     <use xlink:href="#mfd2cfbe8c0" x="300.107107" y="157.909862" style="fill: #1f77b4; stroke: #1f77b4"/>
     <use xlink:href="#mfd2cfbe8c0" x="303.386446" y="182.487944" style="fill: #1f77b4; stroke: #1f77b4"/>
     <use xlink:href="#mfd2cfbe8c0" x="306.665785" y="180.520651" style="fill: #1f77b4; stroke: #1f77b4"/>
     <use xlink:href="#mfd2cfbe8c0" x="309.945124" y="163.417755" style="fill: #1f77b4; stroke: #1f77b4"/>
     <use xlink:href="#mfd2cfbe8c0" x="313.224463" y="162.427697" style="fill: #1f77b4; stroke: #1f77b4"/>
     <use xlink:href="#mfd2cfbe8c0" x="316.503802" y="171.862472" style="fill: #1f77b4; stroke: #1f77b4"/>
     <use xlink:href="#mfd2cfbe8c0" x="319.78314" y="213.38594" style="fill: #1f77b4; stroke: #1f77b4"/>
     <use xlink:href="#mfd2cfbe8c0" x="323.062479" y="208.983854" style="fill: #1f77b4; stroke: #1f77b4"/>
     <use xlink:href="#mfd2cfbe8c0" x="326.341818" y="192.39108" style="fill: #1f77b4; stroke: #1f77b4"/>
     <use xlink:href="#mfd2cfbe8c0" x="329.621157" y="203.975021" style="fill: #1f77b4; stroke: #1f77b4"/>
     <use xlink:href="#mfd2cfbe8c0" x="332.900496" y="152.05064" style="fill: #1f77b4; stroke: #1f77b4"/>
     <use xlink:href="#mfd2cfbe8c0" x="336.179835" y="194.97274" style="fill: #1f77b4; stroke: #1f77b4"/>
     <use xlink:href="#mfd2cfbe8c0" x="339.459174" y="174.115321" style="fill: #1f77b4; stroke: #1f77b4"/>
     <use xlink:href="#mfd2cfbe8c0" x="342.738512" y="217.868462" style="fill: #1f77b4; stroke: #1f77b4"/>
     <use xlink:href="#mfd2cfbe8c0" x="346.017851" y="180.944504" style="fill: #1f77b4; stroke: #1f77b4"/>
     <use xlink:href="#mfd2cfbe8c0" x="349.29719" y="199.466475" style="fill: #1f77b4; stroke: #1f77b4"/>
     <use xlink:href="#mfd2cfbe8c0" x="352.576529" y="218.129454" style="fill: #1f77b4; stroke: #1f77b4"/>
     <use xlink:href="#mfd2cfbe8c0" x="355.855868" y="160.03317" style="fill: #1f77b4; stroke: #1f77b4"/>
     <use xlink:href="#mfd2cfbe8c0" x="359.135207" y="167.093699" style="fill: #1f77b4; stroke: #1f77b4"/>
     <use xlink:href="#mfd2cfbe8c0" x="362.414545" y="160.604894" style="fill: #1f77b4; stroke: #1f77b4"/>
     <use xlink:href="#mfd2cfbe8c0" x="365.693884" y="170.911375" style="fill: #1f77b4; stroke: #1f77b4"/>
     <use xlink:href="#mfd2cfbe8c0" x="368.973223" y="174.428863" style="fill: #1f77b4; stroke: #1f77b4"/>
     <use xlink:href="#mfd2cfbe8c0" x="372.252562" y="147.980959" style="fill: #1f77b4; stroke: #1f77b4"/>
     <use xlink:href="#mfd2cfbe8c0" x="375.531901" y="159.865837" style="fill: #1f77b4; stroke: #1f77b4"/>
     <use xlink:href="#mfd2cfbe8c0" x="378.81124" y="185.929355" style="fill: #1f77b4; stroke: #1f77b4"/>
     <use xlink:href="#mfd2cfbe8c0" x="382.090579" y="171.889361" style="fill: #1f77b4; stroke: #1f77b4"/>
     <use xlink:href="#mfd2cfbe8c0" x="385.369917" y="171.594974" style="fill: #1f77b4; stroke: #1f77b4"/>
     <use xlink:href="#mfd2cfbe8c0" x="388.649256" y="154.242969" style="fill: #1f77b4; stroke: #1f77b4"/>
     <use xlink:href="#mfd2cfbe8c0" x="391.928595" y="187.899428" style="fill: #1f77b4; stroke: #1f77b4"/>
     <use xlink:href="#mfd2cfbe8c0" x="395.207934" y="184.911564" style="fill: #1f77b4; stroke: #1f77b4"/>
     <use xlink:href="#mfd2cfbe8c0" x="398.487273" y="177.892468" style="fill: #1f77b4; stroke: #1f77b4"/>
    </g>
   </g>
   <g id="line2d_15">
    <path d="M 73.832727 53.568 
L 77.112066 55.967559 
L 80.391405 61.209959 
L 83.670744 68.374142 
L 86.950083 74.599635 
L 90.229421 85.083804 
L 93.50876 96.399642 
L 96.788099 105.65253 
L 100.067438 117.756799 
L 103.346777 124.611275 
L 106.626116 136.590673 
L 109.905455 144.480654 
L 113.184793 152.146255 
L 116.464132 159.0325 
L 119.743471 168.246297 
L 123.02281 174.870136 
L 126.302149 179.138353 
L 129.581488 184.357871 
L 132.860826 190.781563 
L 136.140165 194.71604 
L 139.419504 198.215558 
L 142.698843 205.007283 
L 145.978182 204.875792 
L 149.257521 207.809301 
L 152.53686 207.986705 
L 155.816198 209.916562 
L 159.095537 215.04278 
L 162.374876 210.925963 
L 165.654215 211.484215 
L 168.933554 214.93252 
L 172.212893 215.504013 
L 175.492231 215.561295 
L 178.77157 218.936385 
L 182.050909 219.156842 
L 185.330248 223.18264 
L 188.609587 226.42655 
L 191.888926 223.480239 
L 195.168264 225.479962 
L 198.447603 224.927813 
L 201.726942 222.520903 
L 205.006281 222.691307 
L 208.28562 221.13049 
L 211.564959 221.792619 
L 214.844298 219.58581 
L 218.123636 218.153913 
L 221.402975 218.699071 
L 224.682314 219.480392 
L 227.961653 220.031877 
L 231.240992 217.704205 
L 234.520331 219.70676 
L 237.799669 218.26256 
L 241.079008 216.814972 
L 244.358347 220.589787 
L 247.637686 222.166002 
L 250.917025 219.633077 
L 254.196364 214.083657 
L 257.475702 213.154075 
L 260.755041 211.573848 
L 264.03438 211.724278 
L 267.313719 207.245945 
L 270.593058 205.997402 
L 273.872397 205.625055 
L 277.151736 209.768363 
L 280.431074 205.235984 
L 283.710413 201.555007 
L 286.989752 200.711565 
L 290.269091 198.483616 
L 293.54843 198.93666 
L 296.827769 200.849187 
L 300.107107 195.782888 
L 303.386446 193.536503 
L 306.665785 191.316667 
L 309.945124 187.681082 
L 313.224463 184.297152 
L 316.503802 182.1326 
L 319.78314 184.123864 
L 323.062479 185.506963 
L 326.341818 185.180108 
L 329.621157 185.986267 
L 332.900496 181.776439 
L 336.179835 182.05003 
L 339.459174 180.313536 
L 342.738512 182.90424 
L 346.017851 181.736115 
L 349.29719 182.441009 
L 352.576529 184.854164 
L 355.855868 181.511363 
L 359.135207 179.158179 
L 362.414545 176.411594 
L 365.693884 174.906681 
L 368.973223 173.879523 
L 372.252562 170.434219 
L 375.531901 168.447197 
L 378.81124 169.128481 
L 382.090579 168.409404 
L 385.369917 167.730726 
L 388.649256 165.465998 
L 391.928595 166.618271 
L 395.207934 167.376714 
L 398.487273 167.395319 
" clip-path="url(#pc01953eec2)" style="fill: none; stroke: #ff0000; stroke-width: 1.5; stroke-linecap: square"/>
   </g>
   <g id="patch_3">
    <path d="M 57.6 307.584 
L 57.6 41.472 
" style="fill: none; stroke: #000000; stroke-width: 0.8; stroke-linejoin: miter; stroke-linecap: square"/>
   </g>
   <g id="patch_4">
    <path d="M 414.72 307.584 
L 414.72 41.472 
" style="fill: none; stroke: #000000; stroke-width: 0.8; stroke-linejoin: miter; stroke-linecap: square"/>
   </g>
   <g id="patch_5">
    <path d="M 57.6 307.584 
L 414.72 307.584 
" style="fill: none; stroke: #000000; stroke-width: 0.8; stroke-linejoin: miter; stroke-linecap: square"/>
   </g>
   <g id="patch_6">
    <path d="M 57.6 41.472 
L 414.72 41.472 
" style="fill: none; stroke: #000000; stroke-width: 0.8; stroke-linejoin: miter; stroke-linecap: square"/>
   </g>
   <g id="legend_1">
    <g id="patch_7">
     <path d="M 316.577812 93.506375 
L 407.72 93.506375 
Q 409.72 93.506375 409.72 91.506375 
L 409.72 48.472 
Q 409.72 46.472 407.72 46.472 
L 316.577812 46.472 
Q 314.577812 46.472 314.577812 48.472 
L 314.577812 91.506375 
Q 314.577812 93.506375 316.577812 93.506375 
z
" style="fill: #ffffff; opacity: 0.8; stroke: #cccccc; stroke-linejoin: miter"/>
    </g>
    <g id="line2d_16">
     <path d="M 318.577812 54.570438 
L 328.577812 54.570438 
L 338.577812 54.570438 
" style="fill: none; stroke: #0000ff; stroke-width: 1.5; stroke-linecap: square"/>
    </g>
    <g id="text_13">
     <!-- state -->
     <g transform="translate(346.577812 58.070438) scale(0.1 -0.1)">
      <defs>
       <path id="DejaVuSans-73" d="M 2834 3397 
L 2834 2853 
Q 2591 2978 2328 3040 
Q 2066 3103 1784 3103 
Q 1356 3103 1142 2972 
Q 928 2841 928 2578 
Q 928 2378 1081 2264 
Q 1234 2150 1697 2047 
L 1894 2003 
Q 2506 1872 2764 1633 
Q 3022 1394 3022 966 
Q 3022 478 2636 193 
Q 2250 -91 1575 -91 
Q 1294 -91 989 -36 
Q 684 19 347 128 
L 347 722 
Q 666 556 975 473 
Q 1284 391 1588 391 
Q 1994 391 2212 530 
Q 2431 669 2431 922 
Q 2431 1156 2273 1281 
Q 2116 1406 1581 1522 
L 1381 1569 
Q 847 1681 609 1914 
Q 372 2147 372 2553 
Q 372 3047 722 3315 
Q 1072 3584 1716 3584 
Q 2034 3584 2315 3537 
Q 2597 3491 2834 3397 
z
" transform="scale(0.015625)"/>
       <path id="DejaVuSans-74" d="M 1172 4494 
L 1172 3500 
L 2356 3500 
L 2356 3053 
L 1172 3053 
L 1172 1153 
Q 1172 725 1289 603 
Q 1406 481 1766 481 
L 2356 481 
L 2356 0 
L 1766 0 
Q 1100 0 847 248 
Q 594 497 594 1153 
L 594 3053 
L 172 3053 
L 172 3500 
L 594 3500 
L 594 4494 
L 1172 4494 
z
" transform="scale(0.015625)"/>
       <path id="DejaVuSans-61" d="M 2194 1759 
Q 1497 1759 1228 1600 
Q 959 1441 959 1056 
Q 959 750 1161 570 
Q 1363 391 1709 391 
Q 2188 391 2477 730 
Q 2766 1069 2766 1631 
L 2766 1759 
L 2194 1759 
z
M 3341 1997 
L 3341 0 
L 2766 0 
L 2766 531 
Q 2569 213 2275 61 
Q 1981 -91 1556 -91 
Q 1019 -91 701 211 
Q 384 513 384 1019 
Q 384 1609 779 1909 
Q 1175 2209 1959 2209 
L 2766 2209 
L 2766 2266 
Q 2766 2663 2505 2880 
Q 2244 3097 1772 3097 
Q 1472 3097 1187 3025 
Q 903 2953 641 2809 
L 641 3341 
Q 956 3463 1253 3523 
Q 1550 3584 1831 3584 
Q 2591 3584 2966 3190 
Q 3341 2797 3341 1997 
z
" transform="scale(0.015625)"/>
       <path id="DejaVuSans-65" d="M 3597 1894 
L 3597 1613 
L 953 1613 
Q 991 1019 1311 708 
Q 1631 397 2203 397 
Q 2534 397 2845 478 
Q 3156 559 3463 722 
L 3463 178 
Q 3153 47 2828 -22 
Q 2503 -91 2169 -91 
Q 1331 -91 842 396 
Q 353 884 353 1716 
Q 353 2575 817 3079 
Q 1281 3584 2069 3584 
Q 2775 3584 3186 3129 
Q 3597 2675 3597 1894 
z
M 3022 2063 
Q 3016 2534 2758 2815 
Q 2500 3097 2075 3097 
Q 1594 3097 1305 2825 
Q 1016 2553 972 2059 
L 3022 2063 
z
" transform="scale(0.015625)"/>
      </defs>
      <use xlink:href="#DejaVuSans-73"/>
      <use xlink:href="#DejaVuSans-74" transform="translate(52.099609 0)"/>
      <use xlink:href="#DejaVuSans-61" transform="translate(91.308594 0)"/>
      <use xlink:href="#DejaVuSans-74" transform="translate(152.587891 0)"/>
      <use xlink:href="#DejaVuSans-65" transform="translate(191.796875 0)"/>
     </g>
    </g>
    <g id="line2d_17">
     <g>
      <use xlink:href="#mfd2cfbe8c0" x="328.577812" y="69.248563" style="fill: #1f77b4; stroke: #1f77b4"/>
     </g>
    </g>
    <g id="text_14">
     <!-- observation -->
     <g transform="translate(346.577812 72.748563) scale(0.1 -0.1)">
      <defs>
       <path id="DejaVuSans-6f" d="M 1959 3097 
Q 1497 3097 1228 2736 
Q 959 2375 959 1747 
Q 959 1119 1226 758 
Q 1494 397 1959 397 
Q 2419 397 2687 759 
Q 2956 1122 2956 1747 
Q 2956 2369 2687 2733 
Q 2419 3097 1959 3097 
z
M 1959 3584 
Q 2709 3584 3137 3096 
Q 3566 2609 3566 1747 
Q 3566 888 3137 398 
Q 2709 -91 1959 -91 
Q 1206 -91 779 398 
Q 353 888 353 1747 
Q 353 2609 779 3096 
Q 1206 3584 1959 3584 
z
" transform="scale(0.015625)"/>
       <path id="DejaVuSans-62" d="M 3116 1747 
Q 3116 2381 2855 2742 
Q 2594 3103 2138 3103 
Q 1681 3103 1420 2742 
Q 1159 2381 1159 1747 
Q 1159 1113 1420 752 
Q 1681 391 2138 391 
Q 2594 391 2855 752 
Q 3116 1113 3116 1747 
z
M 1159 2969 
Q 1341 3281 1617 3432 
Q 1894 3584 2278 3584 
Q 2916 3584 3314 3078 
Q 3713 2572 3713 1747 
Q 3713 922 3314 415 
Q 2916 -91 2278 -91 
Q 1894 -91 1617 61 
Q 1341 213 1159 525 
L 1159 0 
L 581 0 
L 581 4863 
L 1159 4863 
L 1159 2969 
z
" transform="scale(0.015625)"/>
       <path id="DejaVuSans-72" d="M 2631 2963 
Q 2534 3019 2420 3045 
Q 2306 3072 2169 3072 
Q 1681 3072 1420 2755 
Q 1159 2438 1159 1844 
L 1159 0 
L 581 0 
L 581 3500 
L 1159 3500 
L 1159 2956 
Q 1341 3275 1631 3429 
Q 1922 3584 2338 3584 
Q 2397 3584 2469 3576 
Q 2541 3569 2628 3553 
L 2631 2963 
z
" transform="scale(0.015625)"/>
       <path id="DejaVuSans-76" d="M 191 3500 
L 800 3500 
L 1894 563 
L 2988 3500 
L 3597 3500 
L 2284 0 
L 1503 0 
L 191 3500 
z
" transform="scale(0.015625)"/>
       <path id="DejaVuSans-69" d="M 603 3500 
L 1178 3500 
L 1178 0 
L 603 0 
L 603 3500 
z
M 603 4863 
L 1178 4863 
L 1178 4134 
L 603 4134 
L 603 4863 
z
" transform="scale(0.015625)"/>
       <path id="DejaVuSans-6e" d="M 3513 2113 
L 3513 0 
L 2938 0 
L 2938 2094 
Q 2938 2591 2744 2837 
Q 2550 3084 2163 3084 
Q 1697 3084 1428 2787 
Q 1159 2491 1159 1978 
L 1159 0 
L 581 0 
L 581 3500 
L 1159 3500 
L 1159 2956 
Q 1366 3272 1645 3428 
Q 1925 3584 2291 3584 
Q 2894 3584 3203 3211 
Q 3513 2838 3513 2113 
z
" transform="scale(0.015625)"/>
      </defs>
      <use xlink:href="#DejaVuSans-6f"/>
      <use xlink:href="#DejaVuSans-62" transform="translate(61.181641 0)"/>
      <use xlink:href="#DejaVuSans-73" transform="translate(124.658203 0)"/>
      <use xlink:href="#DejaVuSans-65" transform="translate(176.757812 0)"/>
      <use xlink:href="#DejaVuSans-72" transform="translate(238.28125 0)"/>
      <use xlink:href="#DejaVuSans-76" transform="translate(279.394531 0)"/>
      <use xlink:href="#DejaVuSans-61" transform="translate(338.574219 0)"/>
      <use xlink:href="#DejaVuSans-74" transform="translate(399.853516 0)"/>
      <use xlink:href="#DejaVuSans-69" transform="translate(439.0625 0)"/>
      <use xlink:href="#DejaVuSans-6f" transform="translate(466.845703 0)"/>
      <use xlink:href="#DejaVuSans-6e" transform="translate(528.027344 0)"/>
     </g>
    </g>
    <g id="line2d_18">
     <path d="M 318.577812 83.926688 
L 328.577812 83.926688 
L 338.577812 83.926688 
" style="fill: none; stroke: #ff0000; stroke-width: 1.5; stroke-linecap: square"/>
    </g>
    <g id="text_15">
     <!-- estimate -->
     <g transform="translate(346.577812 87.426688) scale(0.1 -0.1)">
      <defs>
       <path id="DejaVuSans-6d" d="M 3328 2828 
Q 3544 3216 3844 3400 
Q 4144 3584 4550 3584 
Q 5097 3584 5394 3201 
Q 5691 2819 5691 2113 
L 5691 0 
L 5113 0 
L 5113 2094 
Q 5113 2597 4934 2840 
Q 4756 3084 4391 3084 
Q 3944 3084 3684 2787 
Q 3425 2491 3425 1978 
L 3425 0 
L 2847 0 
L 2847 2094 
Q 2847 2600 2669 2842 
Q 2491 3084 2119 3084 
Q 1678 3084 1418 2786 
Q 1159 2488 1159 1978 
L 1159 0 
L 581 0 
L 581 3500 
L 1159 3500 
L 1159 2956 
Q 1356 3278 1631 3431 
Q 1906 3584 2284 3584 
Q 2666 3584 2933 3390 
Q 3200 3197 3328 2828 
z
" transform="scale(0.015625)"/>
      </defs>
      <use xlink:href="#DejaVuSans-65"/>
      <use xlink:href="#DejaVuSans-73" transform="translate(61.523438 0)"/>
      <use xlink:href="#DejaVuSans-74" transform="translate(113.623047 0)"/>
      <use xlink:href="#DejaVuSans-69" transform="translate(152.832031 0)"/>
      <use xlink:href="#DejaVuSans-6d" transform="translate(180.615234 0)"/>
      <use xlink:href="#DejaVuSans-61" transform="translate(278.027344 0)"/>
      <use xlink:href="#DejaVuSans-74" transform="translate(339.306641 0)"/>
      <use xlink:href="#DejaVuSans-65" transform="translate(378.515625 0)"/>
     </g>
    </g>
   </g>
  </g>
 </g>
 <defs>
  <clipPath id="pc01953eec2">
   <rect x="57.6" y="41.472" width="357.12" height="266.112"/>
  </clipPath>
 </defs>
</svg>
