<?xml version="1.0" encoding="utf-8" standalone="no"?>
<!DOCTYPE svg PUBLIC "-//W3C//DTD SVG 1.1//EN"
  "http://www.w3.org/Graphics/SVG/1.1/DTD/svg11.dtd">
<svg xmlns:xlink="http://www.w3.org/1999/xlink" width="460.8pt" height="345.6pt" viewBox="0 0 460.8 345.6" xmlns="http://www.w3.org/2000/svg" version="1.1">
 <metadata>
  <rdf:RDF xmlns:dc="http://purl.org/dc/elements/1.1/" xmlns:cc="http://creativecommons.org/ns#" xmlns:rdf="http://www.w3.org/1999/02/22-rdf-syntax-ns#">
   <cc:Work>
    <dc:type rdf:resource="http://purl.org/dc/dcmitype/StillImage"/>
    <dc:date>2025-02-14T21:49:20.605776</dc:date>
    <dc:format>image/svg+xml</dc:format>
    <dc:creator>
     <cc:Agent>
      <dc:title>Matplotlib v3.10.0, https://matplotlib.org/</dc:title>
     </cc:Agent>
    </dc:creator>
   </cc:Work>
  </rdf:RDF>
 </metadata>
 <defs>
  <style type="text/css">*{stroke-linejoin: round; stroke-linecap: butt}</style>
 </defs>
 <g id="figure_1">
  <g id="patch_1">
   <path d="M 0 345.6 
L 460.8 345.6 
L 460.8 0 
L 0 0 
z
" style="fill: #ffffff"/>
  </g>
  <g id="axes_1">
   <g id="patch_2">
    <path d="M 57.6 307.584 
L 414.72 307.584 
L 414.72 41.472 
L 57.6 41.472 
z
" style="fill: #ffffff"/>
   </g>
   <g id="matplotlib.axis_1">
    <g id="xtick_1">
     <g id="line2d_1">
      <defs>
       <path id="m639c4246db" d="M 0 0 
L 0 3.5 
" style="stroke: #000000; stroke-width: 0.8"/>
      </defs>
      <g>
       <use xlink:href="#m639c4246db" x="73.832727" y="307.584" style="stroke: #000000; stroke-width: 0.8"/>
      </g>
     </g>
     <g id="text_1">
      <!-- 0 -->
      <g transform="translate(70.651477 322.182437) scale(0.1 -0.1)">
       <defs>
        <path id="DejaVuSans-30" d="M 2034 4250 
Q 1547 4250 1301 3770 
Q 1056 3291 1056 2328 
Q 1056 1369 1301 889 
Q 1547 409 2034 409 
Q 2525 409 2770 889 
Q 3016 1369 3016 2328 
Q 3016 3291 2770 3770 
Q 2525 4250 2034 4250 
z
M 2034 4750 
Q 2819 4750 3233 4129 
Q 3647 3509 3647 2328 
Q 3647 1150 3233 529 
Q 2819 -91 2034 -91 
Q 1250 -91 836 529 
Q 422 1150 422 2328 
Q 422 3509 836 4129 
Q 1250 4750 2034 4750 
z
" transform="scale(0.015625)"/>
       </defs>
       <use xlink:href="#DejaVuSans-30"/>
      </g>
     </g>
    </g>
    <g id="xtick_2">
     <g id="line2d_2">
      <g>
       <use xlink:href="#m639c4246db" x="139.419504" y="307.584" style="stroke: #000000; stroke-width: 0.8"/>
      </g>
     </g>
     <g id="text_2">
      <!-- 20 -->
      <g transform="translate(133.057004 322.182437) scale(0.1 -0.1)">
       <defs>
        <path id="DejaVuSans-32" d="M 1228 531 
L 3431 531 
L 3431 0 
L 469 0 
L 469 531 
Q 828 903 1448 1529 
Q 2069 2156 2228 2338 
Q 2531 2678 2651 2914 
Q 2772 3150 2772 3378 
Q 2772 3750 2511 3984 
Q 2250 4219 1831 4219 
Q 1534 4219 1204 4116 
Q 875 4013 500 3803 
L 500 4441 
Q 881 4594 1212 4672 
Q 1544 4750 1819 4750 
Q 2544 4750 2975 4387 
Q 3406 4025 3406 3419 
Q 3406 3131 3298 2873 
Q 3191 2616 2906 2266 
Q 2828 2175 2409 1742 
Q 1991 1309 1228 531 
z
" transform="scale(0.015625)"/>
       </defs>
       <use xlink:href="#DejaVuSans-32"/>
       <use xlink:href="#DejaVuSans-30" transform="translate(63.623047 0)"/>
      </g>
     </g>
    </g>
    <g id="xtick_3">
     <g id="line2d_3">
      <g>
       <use xlink:href="#m639c4246db" x="205.006281" y="307.584" style="stroke: #000000; stroke-width: 0.8"/>
      </g>
     </g>
     <g id="text_3">
      <!-- 40 -->
      <g transform="translate(198.643781 322.182437) scale(0.1 -0.1)">
       <defs>
        <path id="DejaVuSans-34" d="M 2419 4116 
L 825 1625 
L 2419 1625 
L 2419 4116 
z
M 2253 4666 
L 3047 4666 
L 3047 1625 
L 3713 1625 
L 3713 1100 
L 3047 1100 
L 3047 0 
L 2419 0 
L 2419 1100 
L 313 1100 
L 313 1709 
L 2253 4666 
z
" transform="scale(0.015625)"/>
       </defs>
       <use xlink:href="#DejaVuSans-34"/>
       <use xlink:href="#DejaVuSans-30" transform="translate(63.623047 0)"/>
      </g>
     </g>
    </g>
    <g id="xtick_4">
     <g id="line2d_4">
      <g>
       <use xlink:href="#m639c4246db" x="270.593058" y="307.584" style="stroke: #000000; stroke-width: 0.8"/>
      </g>
     </g>
     <g id="text_4">
      <!-- 60 -->
      <g transform="translate(264.230558 322.182437) scale(0.1 -0.1)">
       <defs>
        <path id="DejaVuSans-36" d="M 2113 2584 
Q 1688 2584 1439 2293 
Q 1191 2003 1191 1497 
Q 1191 994 1439 701 
Q 1688 409 2113 409 
Q 2538 409 2786 701 
Q 3034 994 3034 1497 
Q 3034 2003 2786 2293 
Q 2538 2584 2113 2584 
z
M 3366 4563 
L 3366 3988 
Q 3128 4100 2886 4159 
Q 2644 4219 2406 4219 
Q 1781 4219 1451 3797 
Q 1122 3375 1075 2522 
Q 1259 2794 1537 2939 
Q 1816 3084 2150 3084 
Q 2853 3084 3261 2657 
Q 3669 2231 3669 1497 
Q 3669 778 3244 343 
Q 2819 -91 2113 -91 
Q 1303 -91 875 529 
Q 447 1150 447 2328 
Q 447 3434 972 4092 
Q 1497 4750 2381 4750 
Q 2619 4750 2861 4703 
Q 3103 4656 3366 4563 
z
" transform="scale(0.015625)"/>
       </defs>
       <use xlink:href="#DejaVuSans-36"/>
       <use xlink:href="#DejaVuSans-30" transform="translate(63.623047 0)"/>
      </g>
     </g>
    </g>
    <g id="xtick_5">
     <g id="line2d_5">
      <g>
       <use xlink:href="#m639c4246db" x="336.179835" y="307.584" style="stroke: #000000; stroke-width: 0.8"/>
      </g>
     </g>
     <g id="text_5">
      <!-- 80 -->
      <g transform="translate(329.817335 322.182437) scale(0.1 -0.1)">
       <defs>
        <path id="DejaVuSans-38" d="M 2034 2216 
Q 1584 2216 1326 1975 
Q 1069 1734 1069 1313 
Q 1069 891 1326 650 
Q 1584 409 2034 409 
Q 2484 409 2743 651 
Q 3003 894 3003 1313 
Q 3003 1734 2745 1975 
Q 2488 2216 2034 2216 
z
M 1403 2484 
Q 997 2584 770 2862 
Q 544 3141 544 3541 
Q 544 4100 942 4425 
Q 1341 4750 2034 4750 
Q 2731 4750 3128 4425 
Q 3525 4100 3525 3541 
Q 3525 3141 3298 2862 
Q 3072 2584 2669 2484 
Q 3125 2378 3379 2068 
Q 3634 1759 3634 1313 
Q 3634 634 3220 271 
Q 2806 -91 2034 -91 
Q 1263 -91 848 271 
Q 434 634 434 1313 
Q 434 1759 690 2068 
Q 947 2378 1403 2484 
z
M 1172 3481 
Q 1172 3119 1398 2916 
Q 1625 2713 2034 2713 
Q 2441 2713 2670 2916 
Q 2900 3119 2900 3481 
Q 2900 3844 2670 4047 
Q 2441 4250 2034 4250 
Q 1625 4250 1398 4047 
Q 1172 3844 1172 3481 
z
" transform="scale(0.015625)"/>
       </defs>
       <use xlink:href="#DejaVuSans-38"/>
       <use xlink:href="#DejaVuSans-30" transform="translate(63.623047 0)"/>
      </g>
     </g>
    </g>
    <g id="xtick_6">
     <g id="line2d_6">
      <g>
       <use xlink:href="#m639c4246db" x="401.766612" y="307.584" style="stroke: #000000; stroke-width: 0.8"/>
      </g>
     </g>
     <g id="text_6">
      <!-- 100 -->
      <g transform="translate(392.222862 322.182437) scale(0.1 -0.1)">
       <defs>
        <path id="DejaVuSans-31" d="M 794 531 
L 1825 531 
L 1825 4091 
L 703 3866 
L 703 4441 
L 1819 4666 
L 2450 4666 
L 2450 531 
L 3481 531 
L 3481 0 
L 794 0 
L 794 531 
z
" transform="scale(0.015625)"/>
       </defs>
       <use xlink:href="#DejaVuSans-31"/>
       <use xlink:href="#DejaVuSans-30" transform="translate(63.623047 0)"/>
       <use xlink:href="#DejaVuSans-30" transform="translate(127.246094 0)"/>
      </g>
     </g>
    </g>
   </g>
   <g id="matplotlib.axis_2">
    <g id="ytick_1">
     <g id="line2d_7">
      <defs>
       <path id="mc627994518" d="M 0 0 
L -3.5 0 
" style="stroke: #000000; stroke-width: 0.8"/>
      </defs>
      <g>
       <use xlink:href="#mc627994518" x="57.6" y="284.807742" style="stroke: #000000; stroke-width: 0.8"/>
      </g>
     </g>
     <g id="text_7">
      <!-- −2.0 -->
      <g transform="translate(26.317187 288.606961) scale(0.1 -0.1)">
       <defs>
        <path id="DejaVuSans-2212" d="M 678 2272 
L 4684 2272 
L 4684 1741 
L 678 1741 
L 678 2272 
z
" transform="scale(0.015625)"/>
        <path id="DejaVuSans-2e" d="M 684 794 
L 1344 794 
L 1344 0 
L 684 0 
L 684 794 
z
" transform="scale(0.015625)"/>
       </defs>
       <use xlink:href="#DejaVuSans-2212"/>
       <use xlink:href="#DejaVuSans-32" transform="translate(83.789062 0)"/>
       <use xlink:href="#DejaVuSans-2e" transform="translate(147.412109 0)"/>
       <use xlink:href="#DejaVuSans-30" transform="translate(179.199219 0)"/>
      </g>
     </g>
    </g>
    <g id="ytick_2">
     <g id="line2d_8">
      <g>
       <use xlink:href="#mc627994518" x="57.6" y="241.357645" style="stroke: #000000; stroke-width: 0.8"/>
      </g>
     </g>
     <g id="text_8">
      <!-- −1.5 -->
      <g transform="translate(26.317187 245.156864) scale(0.1 -0.1)">
       <defs>
        <path id="DejaVuSans-35" d="M 691 4666 
L 3169 4666 
L 3169 4134 
L 1269 4134 
L 1269 2991 
Q 1406 3038 1543 3061 
Q 1681 3084 1819 3084 
Q 2600 3084 3056 2656 
Q 3513 2228 3513 1497 
Q 3513 744 3044 326 
Q 2575 -91 1722 -91 
Q 1428 -91 1123 -41 
Q 819 9 494 109 
L 494 744 
Q 775 591 1075 516 
Q 1375 441 1709 441 
Q 2250 441 2565 725 
Q 2881 1009 2881 1497 
Q 2881 1984 2565 2268 
Q 2250 2553 1709 2553 
Q 1456 2553 1204 2497 
Q 953 2441 691 2322 
L 691 4666 
z
" transform="scale(0.015625)"/>
       </defs>
       <use xlink:href="#DejaVuSans-2212"/>
       <use xlink:href="#DejaVuSans-31" transform="translate(83.789062 0)"/>
       <use xlink:href="#DejaVuSans-2e" transform="translate(147.412109 0)"/>
       <use xlink:href="#DejaVuSans-35" transform="translate(179.199219 0)"/>
      </g>
     </g>
    </g>
    <g id="ytick_3">
     <g id="line2d_9">
      <g>
       <use xlink:href="#mc627994518" x="57.6" y="197.907548" style="stroke: #000000; stroke-width: 0.8"/>
      </g>
     </g>
     <g id="text_9">
      <!-- −1.0 -->
      <g transform="translate(26.317187 201.706767) scale(0.1 -0.1)">
       <use xlink:href="#DejaVuSans-2212"/>
       <use xlink:href="#DejaVuSans-31" transform="translate(83.789062 0)"/>
       <use xlink:href="#DejaVuSans-2e" transform="translate(147.412109 0)"/>
       <use xlink:href="#DejaVuSans-30" transform="translate(179.199219 0)"/>
      </g>
     </g>
    </g>
    <g id="ytick_4">
     <g id="line2d_10">
      <g>
       <use xlink:href="#mc627994518" x="57.6" y="154.457451" style="stroke: #000000; stroke-width: 0.8"/>
      </g>
     </g>
     <g id="text_10">
      <!-- −0.5 -->
      <g transform="translate(26.317187 158.25667) scale(0.1 -0.1)">
       <use xlink:href="#DejaVuSans-2212"/>
       <use xlink:href="#DejaVuSans-30" transform="translate(83.789062 0)"/>
       <use xlink:href="#DejaVuSans-2e" transform="translate(147.412109 0)"/>
       <use xlink:href="#DejaVuSans-35" transform="translate(179.199219 0)"/>
      </g>
     </g>
    </g>
    <g id="ytick_5">
     <g id="line2d_11">
      <g>
       <use xlink:href="#mc627994518" x="57.6" y="111.007354" style="stroke: #000000; stroke-width: 0.8"/>
      </g>
     </g>
     <g id="text_11">
      <!-- 0.0 -->
      <g transform="translate(34.696875 114.806573) scale(0.1 -0.1)">
       <use xlink:href="#DejaVuSans-30"/>
       <use xlink:href="#DejaVuSans-2e" transform="translate(63.623047 0)"/>
       <use xlink:href="#DejaVuSans-30" transform="translate(95.410156 0)"/>
      </g>
     </g>
    </g>
    <g id="ytick_6">
     <g id="line2d_12">
      <g>
       <use xlink:href="#mc627994518" x="57.6" y="67.557257" style="stroke: #000000; stroke-width: 0.8"/>
      </g>
     </g>
     <g id="text_12">
      <!-- 0.5 -->
      <g transform="translate(34.696875 71.356476) scale(0.1 -0.1)">
       <use xlink:href="#DejaVuSans-30"/>
       <use xlink:href="#DejaVuSans-2e" transform="translate(63.623047 0)"/>
       <use xlink:href="#DejaVuSans-35" transform="translate(95.410156 0)"/>
      </g>
     </g>
    </g>
   </g>
   <g id="line2d_13">
    <path d="M 73.832727 118.288166 
L 77.112066 118.042972 
L 80.391405 115.830984 
L 83.670744 121.767162 
L 86.950083 118.291524 
L 90.229421 120.702582 
L 93.50876 141.090895 
L 96.788099 140.292404 
L 100.067438 143.906294 
L 103.346777 131.105005 
L 106.626116 139.712644 
L 109.905455 139.705262 
L 113.184793 141.00873 
L 116.464132 153.988205 
L 119.743471 162.114429 
L 123.02281 174.806865 
L 126.302149 185.918698 
L 129.581488 201.377329 
L 132.860826 205.288659 
L 136.140165 212.845708 
L 139.419504 229.56286 
L 142.698843 249.705061 
L 145.978182 245.93835 
L 149.257521 241.903197 
L 152.53686 239.820241 
L 155.816198 233.625373 
L 159.095537 223.886087 
L 162.374876 242.098027 
L 165.654215 222.397261 
L 168.933554 210.327697 
L 172.212893 215.108265 
L 175.492231 213.424299 
L 178.77157 211.332438 
L 182.050909 201.650444 
L 185.330248 182.221876 
L 188.609587 192.216404 
L 191.888926 177.223165 
L 195.168264 183.011035 
L 198.447603 173.951465 
L 201.726942 177.049453 
L 205.006281 167.366448 
L 208.28562 163.662995 
L 211.564959 165.534224 
L 214.844298 158.588277 
L 218.123636 154.640441 
L 221.402975 146.425033 
L 224.682314 140.301736 
L 227.961653 124.209949 
L 231.240992 123.534586 
L 234.520331 104.523697 
L 237.799669 114.129056 
L 241.079008 113.029999 
L 244.358347 127.800493 
L 247.637686 137.932357 
L 250.917025 146.138508 
L 254.196364 141.407078 
L 257.475702 135.273359 
L 260.755041 141.135572 
L 264.03438 142.52525 
L 267.313719 138.89516 
L 270.593058 141.604235 
L 273.872397 145.799338 
L 277.151736 148.602284 
L 280.431074 149.369756 
L 283.710413 165.526289 
L 286.989752 159.549898 
L 290.269091 154.508804 
L 293.54843 151.353392 
L 296.827769 160.17074 
L 300.107107 157.637061 
L 303.386446 147.683732 
L 306.665785 132.434749 
L 309.945124 135.602253 
L 313.224463 116.069965 
L 316.503802 131.359123 
L 319.78314 141.066514 
L 323.062479 146.402729 
L 326.341818 137.509153 
L 329.621157 139.594312 
L 332.900496 139.983917 
L 336.179835 121.199199 
L 339.459174 124.561164 
L 342.738512 133.112767 
L 346.017851 135.887444 
L 349.29719 141.895702 
L 352.576529 136.99622 
L 355.855868 145.066207 
L 359.135207 163.652604 
L 362.414545 140.90377 
L 365.693884 149.773337 
L 368.973223 151.630576 
L 372.252562 165.956053 
L 375.531901 152.712153 
L 378.81124 145.359576 
L 382.090579 136.539143 
L 385.369917 144.991779 
L 388.649256 135.505224 
L 391.928595 123.70039 
L 395.207934 126.716948 
L 398.487273 125.029879 
" clip-path="url(#p00af3566a4)" style="fill: none; stroke: #0000ff; stroke-width: 1.5; stroke-linecap: square"/>
   </g>
   <g id="line2d_14">
    <defs>
     <path id="me4b0e8594f" d="M 0 3 
C 0.795609 3 1.55874 2.683901 2.12132 2.12132 
C 2.683901 1.55874 3 0.795609 3 0 
C 3 -0.795609 2.683901 -1.55874 2.12132 -2.12132 
C 1.55874 -2.683901 0.795609 -3 0 -3 
C -0.795609 -3 -1.55874 -2.683901 -2.12132 -2.12132 
C -2.683901 -1.55874 -3 -0.795609 -3 0 
C -3 0.795609 -2.683901 1.55874 -2.12132 2.12132 
C -1.55874 2.683901 -0.795609 3 0 3 
z
" style="stroke: #1f77b4"/>
    </defs>
    <g clip-path="url(#p00af3566a4)">
     <use xlink:href="#me4b0e8594f" x="73.832727" y="143.972899" style="fill: #1f77b4; stroke: #1f77b4"/>
     <use xlink:href="#me4b0e8594f" x="77.112066" y="112.058671" style="fill: #1f77b4; stroke: #1f77b4"/>
     <use xlink:href="#me4b0e8594f" x="80.391405" y="100.77201" style="fill: #1f77b4; stroke: #1f77b4"/>
     <use xlink:href="#me4b0e8594f" x="83.670744" y="104.938325" style="fill: #1f77b4; stroke: #1f77b4"/>
     <use xlink:href="#me4b0e8594f" x="86.950083" y="135.206881" style="fill: #1f77b4; stroke: #1f77b4"/>
     <use xlink:href="#me4b0e8594f" x="90.229421" y="97.551463" style="fill: #1f77b4; stroke: #1f77b4"/>
     <use xlink:href="#me4b0e8594f" x="93.50876" y="147.284168" style="fill: #1f77b4; stroke: #1f77b4"/>
     <use xlink:href="#me4b0e8594f" x="96.788099" y="194.018651" style="fill: #1f77b4; stroke: #1f77b4"/>
     <use xlink:href="#me4b0e8594f" x="100.067438" y="97.635633" style="fill: #1f77b4; stroke: #1f77b4"/>
     <use xlink:href="#me4b0e8594f" x="103.346777" y="155.011718" style="fill: #1f77b4; stroke: #1f77b4"/>
     <use xlink:href="#me4b0e8594f" x="106.626116" y="144.053292" style="fill: #1f77b4; stroke: #1f77b4"/>
     <use xlink:href="#me4b0e8594f" x="109.905455" y="169.64373" style="fill: #1f77b4; stroke: #1f77b4"/>
     <use xlink:href="#me4b0e8594f" x="113.184793" y="100.823926" style="fill: #1f77b4; stroke: #1f77b4"/>
     <use xlink:href="#me4b0e8594f" x="116.464132" y="122.401065" style="fill: #1f77b4; stroke: #1f77b4"/>
     <use xlink:href="#me4b0e8594f" x="119.743471" y="125.240161" style="fill: #1f77b4; stroke: #1f77b4"/>
     <use xlink:href="#me4b0e8594f" x="123.02281" y="184.422035" style="fill: #1f77b4; stroke: #1f77b4"/>
     <use xlink:href="#me4b0e8594f" x="126.302149" y="185.690423" style="fill: #1f77b4; stroke: #1f77b4"/>
     <use xlink:href="#me4b0e8594f" x="129.581488" y="222.098054" style="fill: #1f77b4; stroke: #1f77b4"/>
     <use xlink:href="#me4b0e8594f" x="132.860826" y="214.621629" style="fill: #1f77b4; stroke: #1f77b4"/>
     <use xlink:href="#me4b0e8594f" x="136.140165" y="191.65168" style="fill: #1f77b4; stroke: #1f77b4"/>
     <use xlink:href="#me4b0e8594f" x="139.419504" y="199.913165" style="fill: #1f77b4; stroke: #1f77b4"/>
     <use xlink:href="#me4b0e8594f" x="142.698843" y="228.451811" style="fill: #1f77b4; stroke: #1f77b4"/>
     <use xlink:href="#me4b0e8594f" x="145.978182" y="212.462171" style="fill: #1f77b4; stroke: #1f77b4"/>
     <use xlink:href="#me4b0e8594f" x="149.257521" y="229.19159" style="fill: #1f77b4; stroke: #1f77b4"/>
     <use xlink:href="#me4b0e8594f" x="152.53686" y="295.488" style="fill: #1f77b4; stroke: #1f77b4"/>
     <use xlink:href="#me4b0e8594f" x="155.816198" y="215.192834" style="fill: #1f77b4; stroke: #1f77b4"/>
     <use xlink:href="#me4b0e8594f" x="159.095537" y="262.479473" style="fill: #1f77b4; stroke: #1f77b4"/>
     <use xlink:href="#me4b0e8594f" x="162.374876" y="250.354647" style="fill: #1f77b4; stroke: #1f77b4"/>
     <use xlink:href="#me4b0e8594f" x="165.654215" y="231.844386" style="fill: #1f77b4; stroke: #1f77b4"/>
     <use xlink:href="#me4b0e8594f" x="168.933554" y="199.115356" style="fill: #1f77b4; stroke: #1f77b4"/>
     <use xlink:href="#me4b0e8594f" x="172.212893" y="221.582059" style="fill: #1f77b4; stroke: #1f77b4"/>
     <use xlink:href="#me4b0e8594f" x="175.492231" y="209.443893" style="fill: #1f77b4; stroke: #1f77b4"/>
     <use xlink:href="#me4b0e8594f" x="178.77157" y="193.162206" style="fill: #1f77b4; stroke: #1f77b4"/>
     <use xlink:href="#me4b0e8594f" x="182.050909" y="200.761241" style="fill: #1f77b4; stroke: #1f77b4"/>
     <use xlink:href="#me4b0e8594f" x="185.330248" y="187.982396" style="fill: #1f77b4; stroke: #1f77b4"/>
     <use xlink:href="#me4b0e8594f" x="188.609587" y="149.458069" style="fill: #1f77b4; stroke: #1f77b4"/>
     <use xlink:href="#me4b0e8594f" x="191.888926" y="165.564463" style="fill: #1f77b4; stroke: #1f77b4"/>
     <use xlink:href="#me4b0e8594f" x="195.168264" y="198.739555" style="fill: #1f77b4; stroke: #1f77b4"/>
     <use xlink:href="#me4b0e8594f" x="198.447603" y="170.516193" style="fill: #1f77b4; stroke: #1f77b4"/>
     <use xlink:href="#me4b0e8594f" x="201.726942" y="213.983505" style="fill: #1f77b4; stroke: #1f77b4"/>
     <use xlink:href="#me4b0e8594f" x="205.006281" y="186.585815" style="fill: #1f77b4; stroke: #1f77b4"/>
     <use xlink:href="#me4b0e8594f" x="208.28562" y="183.901316" style="fill: #1f77b4; stroke: #1f77b4"/>
     <use xlink:href="#me4b0e8594f" x="211.564959" y="183.07533" style="fill: #1f77b4; stroke: #1f77b4"/>
     <use xlink:href="#me4b0e8594f" x="214.844298" y="167.531023" style="fill: #1f77b4; stroke: #1f77b4"/>
     <use xlink:href="#me4b0e8594f" x="218.123636" y="187.740909" style="fill: #1f77b4; stroke: #1f77b4"/>
     <use xlink:href="#me4b0e8594f" x="221.402975" y="160.903263" style="fill: #1f77b4; stroke: #1f77b4"/>
     <use xlink:href="#me4b0e8594f" x="224.682314" y="168.040927" style="fill: #1f77b4; stroke: #1f77b4"/>
     <use xlink:href="#me4b0e8594f" x="227.961653" y="91.471866" style="fill: #1f77b4; stroke: #1f77b4"/>
     <use xlink:href="#me4b0e8594f" x="231.240992" y="108.377224" style="fill: #1f77b4; stroke: #1f77b4"/>
     <use xlink:href="#me4b0e8594f" x="234.520331" y="109.379685" style="fill: #1f77b4; stroke: #1f77b4"/>
     <use xlink:href="#me4b0e8594f" x="237.799669" y="92.435608" style="fill: #1f77b4; stroke: #1f77b4"/>
     <use xlink:href="#me4b0e8594f" x="241.079008" y="116.502658" style="fill: #1f77b4; stroke: #1f77b4"/>
     <use xlink:href="#me4b0e8594f" x="244.358347" y="100.775404" style="fill: #1f77b4; stroke: #1f77b4"/>
     <use xlink:href="#me4b0e8594f" x="247.637686" y="129.067141" style="fill: #1f77b4; stroke: #1f77b4"/>
     <use xlink:href="#me4b0e8594f" x="250.917025" y="140.915951" style="fill: #1f77b4; stroke: #1f77b4"/>
     <use xlink:href="#me4b0e8594f" x="254.196364" y="151.02018" style="fill: #1f77b4; stroke: #1f77b4"/>
     <use xlink:href="#me4b0e8594f" x="257.475702" y="152.625429" style="fill: #1f77b4; stroke: #1f77b4"/>
     <use xlink:href="#me4b0e8594f" x="260.755041" y="207.451823" style="fill: #1f77b4; stroke: #1f77b4"/>
     <use xlink:href="#me4b0e8594f" x="264.03438" y="150.571552" style="fill: #1f77b4; stroke: #1f77b4"/>
     <use xlink:href="#me4b0e8594f" x="267.313719" y="125.753194" style="fill: #1f77b4; stroke: #1f77b4"/>
     <use xlink:href="#me4b0e8594f" x="270.593058" y="73.605361" style="fill: #1f77b4; stroke: #1f77b4"/>
     <use xlink:href="#me4b0e8594f" x="273.872397" y="170.869001" style="fill: #1f77b4; stroke: #1f77b4"/>
     <use xlink:href="#me4b0e8594f" x="277.151736" y="97.790436" style="fill: #1f77b4; stroke: #1f77b4"/>
     <use xlink:href="#me4b0e8594f" x="280.431074" y="157.049803" style="fill: #1f77b4; stroke: #1f77b4"/>
     <use xlink:href="#me4b0e8594f" x="283.710413" y="156.687822" style="fill: #1f77b4; stroke: #1f77b4"/>
     <use xlink:href="#me4b0e8594f" x="286.989752" y="105.785417" style="fill: #1f77b4; stroke: #1f77b4"/>
     <use xlink:href="#me4b0e8594f" x="290.269091" y="142.131193" style="fill: #1f77b4; stroke: #1f77b4"/>
     <use xlink:href="#me4b0e8594f" x="293.54843" y="159.17805" style="fill: #1f77b4; stroke: #1f77b4"/>
     <use xlink:href="#me4b0e8594f" x="296.827769" y="152.439814" style="fill: #1f77b4; stroke: #1f77b4"/>
     <use xlink:href="#me4b0e8594f" x="300.107107" y="114.774858" style="fill: #1f77b4; stroke: #1f77b4"/>
     <use xlink:href="#me4b0e8594f" x="303.386446" y="55.112208" style="fill: #1f77b4; stroke: #1f77b4"/>
     <use xlink:href="#me4b0e8594f" x="306.665785" y="143.89946" style="fill: #1f77b4; stroke: #1f77b4"/>
     <use xlink:href="#me4b0e8594f" x="309.945124" y="147.696763" style="fill: #1f77b4; stroke: #1f77b4"/>
     <use xlink:href="#me4b0e8594f" x="313.224463" y="109.339559" style="fill: #1f77b4; stroke: #1f77b4"/>
     <use xlink:href="#me4b0e8594f" x="316.503802" y="136.640011" style="fill: #1f77b4; stroke: #1f77b4"/>
     <use xlink:href="#me4b0e8594f" x="319.78314" y="150.458145" style="fill: #1f77b4; stroke: #1f77b4"/>
     <use xlink:href="#me4b0e8594f" x="323.062479" y="119.584956" style="fill: #1f77b4; stroke: #1f77b4"/>
     <use xlink:href="#me4b0e8594f" x="326.341818" y="175.174837" style="fill: #1f77b4; stroke: #1f77b4"/>
     <use xlink:href="#me4b0e8594f" x="329.621157" y="171.781694" style="fill: #1f77b4; stroke: #1f77b4"/>
     <use xlink:href="#me4b0e8594f" x="332.900496" y="169.164787" style="fill: #1f77b4; stroke: #1f77b4"/>
     <use xlink:href="#me4b0e8594f" x="336.179835" y="128.098652" style="fill: #1f77b4; stroke: #1f77b4"/>
     <use xlink:href="#me4b0e8594f" x="339.459174" y="100.144232" style="fill: #1f77b4; stroke: #1f77b4"/>
     <use xlink:href="#me4b0e8594f" x="342.738512" y="143.272968" style="fill: #1f77b4; stroke: #1f77b4"/>
     <use xlink:href="#me4b0e8594f" x="346.017851" y="132.027995" style="fill: #1f77b4; stroke: #1f77b4"/>
     <use xlink:href="#me4b0e8594f" x="349.29719" y="148.526422" style="fill: #1f77b4; stroke: #1f77b4"/>
     <use xlink:href="#me4b0e8594f" x="352.576529" y="149.812343" style="fill: #1f77b4; stroke: #1f77b4"/>
     <use xlink:href="#me4b0e8594f" x="355.855868" y="190.871573" style="fill: #1f77b4; stroke: #1f77b4"/>
     <use xlink:href="#me4b0e8594f" x="359.135207" y="159.264871" style="fill: #1f77b4; stroke: #1f77b4"/>
     <use xlink:href="#me4b0e8594f" x="362.414545" y="130.910002" style="fill: #1f77b4; stroke: #1f77b4"/>
     <use xlink:href="#me4b0e8594f" x="365.693884" y="166.378251" style="fill: #1f77b4; stroke: #1f77b4"/>
     <use xlink:href="#me4b0e8594f" x="368.973223" y="133.116232" style="fill: #1f77b4; stroke: #1f77b4"/>
     <use xlink:href="#me4b0e8594f" x="372.252562" y="196.44528" style="fill: #1f77b4; stroke: #1f77b4"/>
     <use xlink:href="#me4b0e8594f" x="375.531901" y="147.389886" style="fill: #1f77b4; stroke: #1f77b4"/>
     <use xlink:href="#me4b0e8594f" x="378.81124" y="171.940646" style="fill: #1f77b4; stroke: #1f77b4"/>
     <use xlink:href="#me4b0e8594f" x="382.090579" y="142.039887" style="fill: #1f77b4; stroke: #1f77b4"/>
     <use xlink:href="#me4b0e8594f" x="385.369917" y="153.829895" style="fill: #1f77b4; stroke: #1f77b4"/>
     <use xlink:href="#me4b0e8594f" x="388.649256" y="85.521281" style="fill: #1f77b4; stroke: #1f77b4"/>
     <use xlink:href="#me4b0e8594f" x="391.928595" y="180.086244" style="fill: #1f77b4; stroke: #1f77b4"/>
     <use xlink:href="#me4b0e8594f" x="395.207934" y="145.262248" style="fill: #1f77b4; stroke: #1f77b4"/>
     <use xlink:href="#me4b0e8594f" x="398.487273" y="53.568" style="fill: #1f77b4; stroke: #1f77b4"/>
    </g>
   </g>
   <g id="line2d_15">
    <path d="M 73.832727 141.01368 
L 77.112066 126.229653 
L 80.391405 116.008977 
L 83.670744 112.380475 
L 86.950083 120.454359 
L 90.229421 113.47882 
L 93.50876 122.65137 
L 96.788099 142.251739 
L 100.067438 131.03398 
L 103.346777 138.591244 
L 106.626116 138.935537 
L 109.905455 146.05275 
L 113.184793 132.376909 
L 116.464132 131.64054 
L 119.743471 129.853838 
L 123.02281 143.346928 
L 126.302149 156.299785 
L 129.581488 172.272157 
L 132.860826 182.074467 
L 136.140165 185.802704 
L 139.419504 191.418243 
L 142.698843 203.38829 
L 145.978182 205.150957 
L 149.257521 211.478392 
L 152.53686 234.646323 
L 155.816198 230.356439 
L 159.095537 239.513272 
L 162.374876 242.989528 
L 165.654215 241.767112 
L 168.933554 230.044032 
L 172.212893 227.547473 
L 175.492231 225.517353 
L 178.77157 217.0994 
L 182.050909 210.37714 
L 185.330248 206.346028 
L 188.609587 194.290158 
L 191.888926 187.07642 
L 195.168264 189.270083 
L 198.447603 181.403001 
L 201.726942 190.049807 
L 205.006281 190.174406 
L 208.28562 188.878552 
L 211.564959 189.073787 
L 214.844298 181.969997 
L 218.123636 181.359756 
L 221.402975 175.866781 
L 224.682314 171.779738 
L 227.961653 150.04883 
L 231.240992 136.276692 
L 234.520331 126.537652 
L 237.799669 120.737966 
L 241.079008 119.583986 
L 244.358347 116.158157 
L 247.637686 121.568726 
L 250.917025 124.799817 
L 254.196364 132.30953 
L 257.475702 137.738677 
L 260.755041 152.74207 
L 264.03438 152.051668 
L 267.313719 145.542157 
L 270.593058 127.849088 
L 273.872397 139.992524 
L 277.151736 127.864044 
L 280.431074 137.131234 
L 283.710413 143.866824 
L 286.989752 132.947538 
L 290.269091 135.187335 
L 293.54843 141.317747 
L 296.827769 145.403239 
L 300.107107 135.628301 
L 303.386446 114.704046 
L 306.665785 124.047556 
L 309.945124 130.50408 
L 313.224463 124.48991 
L 316.503802 127.062615 
L 319.78314 136.880674 
L 323.062479 134.940416 
L 326.341818 146.424288 
L 329.621157 155.451016 
L 332.900496 161.408185 
L 336.179835 149.060098 
L 339.459174 136.197457 
L 342.738512 136.28654 
L 346.017851 134.87768 
L 349.29719 140.185738 
L 352.576529 144.659968 
L 355.855868 155.739237 
L 359.135207 156.305074 
L 362.414545 148.95815 
L 365.693884 153.889823 
L 368.973223 149.574454 
L 372.252562 162.487877 
L 375.531901 157.507493 
L 378.81124 162.182942 
L 382.090579 158.414307 
L 385.369917 154.077275 
L 388.649256 134.316996 
L 391.928595 146.603912 
L 395.207934 145.369283 
L 398.487273 121.817458 
" clip-path="url(#p00af3566a4)" style="fill: none; stroke: #ff0000; stroke-width: 1.5; stroke-linecap: square"/>
   </g>
   <g id="patch_3">
    <path d="M 57.6 307.584 
L 57.6 41.472 
" style="fill: none; stroke: #000000; stroke-width: 0.8; stroke-linejoin: miter; stroke-linecap: square"/>
   </g>
   <g id="patch_4">
    <path d="M 414.72 307.584 
L 414.72 41.472 
" style="fill: none; stroke: #000000; stroke-width: 0.8; stroke-linejoin: miter; stroke-linecap: square"/>
   </g>
   <g id="patch_5">
    <path d="M 57.6 307.584 
L 414.72 307.584 
" style="fill: none; stroke: #000000; stroke-width: 0.8; stroke-linejoin: miter; stroke-linecap: square"/>
   </g>
   <g id="patch_6">
    <path d="M 57.6 41.472 
L 414.72 41.472 
" style="fill: none; stroke: #000000; stroke-width: 0.8; stroke-linejoin: miter; stroke-linecap: square"/>
   </g>
   <g id="legend_1">
    <g id="patch_7">
     <path d="M 64.6 93.506375 
L 155.742188 93.506375 
Q 157.742188 93.506375 157.742188 91.506375 
L 157.742188 48.472 
Q 157.742188 46.472 155.742188 46.472 
L 64.6 46.472 
Q 62.6 46.472 62.6 48.472 
L 62.6 91.506375 
Q 62.6 93.506375 64.6 93.506375 
z
" style="fill: #ffffff; opacity: 0.8; stroke: #cccccc; stroke-linejoin: miter"/>
    </g>
    <g id="line2d_16">
     <path d="M 66.6 54.570438 
L 76.6 54.570438 
L 86.6 54.570438 
" style="fill: none; stroke: #0000ff; stroke-width: 1.5; stroke-linecap: square"/>
    </g>
    <g id="text_13">
     <!-- state -->
     <g transform="translate(94.6 58.070438) scale(0.1 -0.1)">
      <defs>
       <path id="DejaVuSans-73" d="M 2834 3397 
L 2834 2853 
Q 2591 2978 2328 3040 
Q 2066 3103 1784 3103 
Q 1356 3103 1142 2972 
Q 928 2841 928 2578 
Q 928 2378 1081 2264 
Q 1234 2150 1697 2047 
L 1894 2003 
Q 2506 1872 2764 1633 
Q 3022 1394 3022 966 
Q 3022 478 2636 193 
Q 2250 -91 1575 -91 
Q 1294 -91 989 -36 
Q 684 19 347 128 
L 347 722 
Q 666 556 975 473 
Q 1284 391 1588 391 
Q 1994 391 2212 530 
Q 2431 669 2431 922 
Q 2431 1156 2273 1281 
Q 2116 1406 1581 1522 
L 1381 1569 
Q 847 1681 609 1914 
Q 372 2147 372 2553 
Q 372 3047 722 3315 
Q 1072 3584 1716 3584 
Q 2034 3584 2315 3537 
Q 2597 3491 2834 3397 
z
" transform="scale(0.015625)"/>
       <path id="DejaVuSans-74" d="M 1172 4494 
L 1172 3500 
L 2356 3500 
L 2356 3053 
L 1172 3053 
L 1172 1153 
Q 1172 725 1289 603 
Q 1406 481 1766 481 
L 2356 481 
L 2356 0 
L 1766 0 
Q 1100 0 847 248 
Q 594 497 594 1153 
L 594 3053 
L 172 3053 
L 172 3500 
L 594 3500 
L 594 4494 
L 1172 4494 
z
" transform="scale(0.015625)"/>
       <path id="DejaVuSans-61" d="M 2194 1759 
Q 1497 1759 1228 1600 
Q 959 1441 959 1056 
Q 959 750 1161 570 
Q 1363 391 1709 391 
Q 2188 391 2477 730 
Q 2766 1069 2766 1631 
L 2766 1759 
L 2194 1759 
z
M 3341 1997 
L 3341 0 
L 2766 0 
L 2766 531 
Q 2569 213 2275 61 
Q 1981 -91 1556 -91 
Q 1019 -91 701 211 
Q 384 513 384 1019 
Q 384 1609 779 1909 
Q 1175 2209 1959 2209 
L 2766 2209 
L 2766 2266 
Q 2766 2663 2505 2880 
Q 2244 3097 1772 3097 
Q 1472 3097 1187 3025 
Q 903 2953 641 2809 
L 641 3341 
Q 956 3463 1253 3523 
Q 1550 3584 1831 3584 
Q 2591 3584 2966 3190 
Q 3341 2797 3341 1997 
z
" transform="scale(0.015625)"/>
       <path id="DejaVuSans-65" d="M 3597 1894 
L 3597 1613 
L 953 1613 
Q 991 1019 1311 708 
Q 1631 397 2203 397 
Q 2534 397 2845 478 
Q 3156 559 3463 722 
L 3463 178 
Q 3153 47 2828 -22 
Q 2503 -91 2169 -91 
Q 1331 -91 842 396 
Q 353 884 353 1716 
Q 353 2575 817 3079 
Q 1281 3584 2069 3584 
Q 2775 3584 3186 3129 
Q 3597 2675 3597 1894 
z
M 3022 2063 
Q 3016 2534 2758 2815 
Q 2500 3097 2075 3097 
Q 1594 3097 1305 2825 
Q 1016 2553 972 2059 
L 3022 2063 
z
" transform="scale(0.015625)"/>
      </defs>
      <use xlink:href="#DejaVuSans-73"/>
      <use xlink:href="#DejaVuSans-74" transform="translate(52.099609 0)"/>
      <use xlink:href="#DejaVuSans-61" transform="translate(91.308594 0)"/>
      <use xlink:href="#DejaVuSans-74" transform="translate(152.587891 0)"/>
      <use xlink:href="#DejaVuSans-65" transform="translate(191.796875 0)"/>
     </g>
    </g>
    <g id="line2d_17">
     <g>
      <use xlink:href="#me4b0e8594f" x="76.6" y="69.248563" style="fill: #1f77b4; stroke: #1f77b4"/>
     </g>
    </g>
    <g id="text_14">
     <!-- observation -->
     <g transform="translate(94.6 72.748563) scale(0.1 -0.1)">
      <defs>
       <path id="DejaVuSans-6f" d="M 1959 3097 
Q 1497 3097 1228 2736 
Q 959 2375 959 1747 
Q 959 1119 1226 758 
Q 1494 397 1959 397 
Q 2419 397 2687 759 
Q 2956 1122 2956 1747 
Q 2956 2369 2687 2733 
Q 2419 3097 1959 3097 
z
M 1959 3584 
Q 2709 3584 3137 3096 
Q 3566 2609 3566 1747 
Q 3566 888 3137 398 
Q 2709 -91 1959 -91 
Q 1206 -91 779 398 
Q 353 888 353 1747 
Q 353 2609 779 3096 
Q 1206 3584 1959 3584 
z
" transform="scale(0.015625)"/>
       <path id="DejaVuSans-62" d="M 3116 1747 
Q 3116 2381 2855 2742 
Q 2594 3103 2138 3103 
Q 1681 3103 1420 2742 
Q 1159 2381 1159 1747 
Q 1159 1113 1420 752 
Q 1681 391 2138 391 
Q 2594 391 2855 752 
Q 3116 1113 3116 1747 
z
M 1159 2969 
Q 1341 3281 1617 3432 
Q 1894 3584 2278 3584 
Q 2916 3584 3314 3078 
Q 3713 2572 3713 1747 
Q 3713 922 3314 415 
Q 2916 -91 2278 -91 
Q 1894 -91 1617 61 
Q 1341 213 1159 525 
L 1159 0 
L 581 0 
L 581 4863 
L 1159 4863 
L 1159 2969 
z
" transform="scale(0.015625)"/>
       <path id="DejaVuSans-72" d="M 2631 2963 
Q 2534 3019 2420 3045 
Q 2306 3072 2169 3072 
Q 1681 3072 1420 2755 
Q 1159 2438 1159 1844 
L 1159 0 
L 581 0 
L 581 3500 
L 1159 3500 
L 1159 2956 
Q 1341 3275 1631 3429 
Q 1922 3584 2338 3584 
Q 2397 3584 2469 3576 
Q 2541 3569 2628 3553 
L 2631 2963 
z
" transform="scale(0.015625)"/>
       <path id="DejaVuSans-76" d="M 191 3500 
L 800 3500 
L 1894 563 
L 2988 3500 
L 3597 3500 
L 2284 0 
L 1503 0 
L 191 3500 
z
" transform="scale(0.015625)"/>
       <path id="DejaVuSans-69" d="M 603 3500 
L 1178 3500 
L 1178 0 
L 603 0 
L 603 3500 
z
M 603 4863 
L 1178 4863 
L 1178 4134 
L 603 4134 
L 603 4863 
z
" transform="scale(0.015625)"/>
       <path id="DejaVuSans-6e" d="M 3513 2113 
L 3513 0 
L 2938 0 
L 2938 2094 
Q 2938 2591 2744 2837 
Q 2550 3084 2163 3084 
Q 1697 3084 1428 2787 
Q 1159 2491 1159 1978 
L 1159 0 
L 581 0 
L 581 3500 
L 1159 3500 
L 1159 2956 
Q 1366 3272 1645 3428 
Q 1925 3584 2291 3584 
Q 2894 3584 3203 3211 
Q 3513 2838 3513 2113 
z
" transform="scale(0.015625)"/>
      </defs>
      <use xlink:href="#DejaVuSans-6f"/>
      <use xlink:href="#DejaVuSans-62" transform="translate(61.181641 0)"/>
      <use xlink:href="#DejaVuSans-73" transform="translate(124.658203 0)"/>
      <use xlink:href="#DejaVuSans-65" transform="translate(176.757812 0)"/>
      <use xlink:href="#DejaVuSans-72" transform="translate(238.28125 0)"/>
      <use xlink:href="#DejaVuSans-76" transform="translate(279.394531 0)"/>
      <use xlink:href="#DejaVuSans-61" transform="translate(338.574219 0)"/>
      <use xlink:href="#DejaVuSans-74" transform="translate(399.853516 0)"/>
      <use xlink:href="#DejaVuSans-69" transform="translate(439.0625 0)"/>
      <use xlink:href="#DejaVuSans-6f" transform="translate(466.845703 0)"/>
      <use xlink:href="#DejaVuSans-6e" transform="translate(528.027344 0)"/>
     </g>
    </g>
    <g id="line2d_18">
     <path d="M 66.6 83.926688 
L 76.6 83.926688 
L 86.6 83.926688 
" style="fill: none; stroke: #ff0000; stroke-width: 1.5; stroke-linecap: square"/>
    </g>
    <g id="text_15">
     <!-- estimate -->
     <g transform="translate(94.6 87.426688) scale(0.1 -0.1)">
      <defs>
       <path id="DejaVuSans-6d" d="M 3328 2828 
Q 3544 3216 3844 3400 
Q 4144 3584 4550 3584 
Q 5097 3584 5394 3201 
Q 5691 2819 5691 2113 
L 5691 0 
L 5113 0 
L 5113 2094 
Q 5113 2597 4934 2840 
Q 4756 3084 4391 3084 
Q 3944 3084 3684 2787 
Q 3425 2491 3425 1978 
L 3425 0 
L 2847 0 
L 2847 2094 
Q 2847 2600 2669 2842 
Q 2491 3084 2119 3084 
Q 1678 3084 1418 2786 
Q 1159 2488 1159 1978 
L 1159 0 
L 581 0 
L 581 3500 
L 1159 3500 
L 1159 2956 
Q 1356 3278 1631 3431 
Q 1906 3584 2284 3584 
Q 2666 3584 2933 3390 
Q 3200 3197 3328 2828 
z
" transform="scale(0.015625)"/>
      </defs>
      <use xlink:href="#DejaVuSans-65"/>
      <use xlink:href="#DejaVuSans-73" transform="translate(61.523438 0)"/>
      <use xlink:href="#DejaVuSans-74" transform="translate(113.623047 0)"/>
      <use xlink:href="#DejaVuSans-69" transform="translate(152.832031 0)"/>
      <use xlink:href="#DejaVuSans-6d" transform="translate(180.615234 0)"/>
      <use xlink:href="#DejaVuSans-61" transform="translate(278.027344 0)"/>
      <use xlink:href="#DejaVuSans-74" transform="translate(339.306641 0)"/>
      <use xlink:href="#DejaVuSans-65" transform="translate(378.515625 0)"/>
     </g>
    </g>
   </g>
  </g>
 </g>
 <defs>
  <clipPath id="p00af3566a4">
   <rect x="57.6" y="41.472" width="357.12" height="266.112"/>
  </clipPath>
 </defs>
</svg>
